<?xml version="1.0" standalone="no"?>
<!DOCTYPE svg PUBLIC "-//W3C//DTD SVG 20010904//EN"
 "http://www.w3.org/TR/2001/REC-SVG-20010904/DTD/svg10.dtd">
<svg version="1.0" xmlns="http://www.w3.org/2000/svg"
 width="918.000000pt" height="918.000000pt" viewBox="0 0 918.000000 918.000000"
 preserveAspectRatio="xMidYMid meet">
<metadata>
Created by potrace 1.14, written by Peter Selinger 2001-2017
</metadata>
<g transform="translate(0.000000,918.000000) scale(0.100000,-0.100000)"
fill="#000000" stroke="none">
<path d="M3930 8710 c0 -5 -7 -7 -15 -4 -10 4 -15 0 -15 -11 0 -9 -4 -13 -10
-10 -5 3 -10 -3 -10 -14 0 -12 5 -21 10 -21 6 0 10 -10 10 -22 0 -22 -1 -22
-26 5 -20 21 -29 25 -39 17 -10 -8 -16 -7 -24 7 -6 10 -11 14 -11 10 0 -4 -8
-3 -19 2 -15 8 -18 7 -17 -6 2 -23 -17 -26 -40 -6 -32 28 -64 45 -64 33 0 -6
6 -13 14 -16 12 -5 41 -64 34 -69 -2 -1 -17 -7 -35 -14 -27 -11 -31 -17 -28
-42 3 -25 0 -29 -21 -29 -36 0 -44 -44 -13 -70 30 -25 36 -25 50 1 8 15 14 18
22 10 7 -7 6 -15 -3 -26 -10 -12 -10 -19 -2 -27 18 -18 14 -26 -10 -21 -18 3
-26 -3 -36 -26 -8 -17 -11 -35 -8 -40 3 -5 -3 -7 -14 -4 -25 7 -24 50 3 80 19
21 19 21 -3 33 -18 9 -25 8 -41 -6 -20 -18 -26 -54 -9 -54 5 0 7 -13 4 -30 -4
-18 -1 -36 6 -45 18 -21 1 -19 -58 10 -62 30 -82 31 -82 6 0 -14 -10 -21 -35
-25 -45 -9 -49 -6 -65 44 -16 48 -30 62 -24 23 3 -16 5 -36 5 -46 0 -10 9 -23
20 -30 19 -12 26 -37 10 -37 -5 0 -15 9 -22 20 -9 12 -30 22 -54 25 -39 5 -39
5 -15 -9 14 -9 31 -15 39 -16 21 0 75 -50 78 -72 3 -18 -1 -19 -57 -12 -42 5
-60 3 -60 -5 0 -6 3 -11 8 -11 4 0 12 -12 19 -26 12 -26 11 -26 -16 -21 -16 3
-33 1 -40 -6 -8 -8 -49 -11 -126 -10 -96 1 -114 -1 -117 -14 -3 -18 -78 -30
-78 -13 0 5 11 10 24 10 14 0 27 4 31 9 6 11 -81 9 -92 -2 -4 -4 -7 -21 -7
-39 -1 -31 -28 -59 -43 -45 -4 5 -1 12 6 16 21 13 -5 24 -28 11 -28 -14 -36
-13 -21 5 7 8 15 13 19 11 3 -2 17 0 30 5 18 7 21 12 12 23 -10 12 -17 11 -49
-5 -145 -74 -162 -79 -246 -79 -69 0 -86 -3 -104 -20 -12 -12 -22 -16 -22 -11
0 13 -48 6 -91 -13 l-34 -14 30 -1 c26 -1 21 -6 -40 -36 -38 -19 -78 -35 -87
-35 -10 0 -18 -4 -18 -10 0 -5 -11 -10 -24 -10 -13 0 -35 -9 -48 -20 -12 -11
-34 -29 -48 -40 -20 -16 -21 -19 -5 -13 11 3 25 10 32 15 7 5 14 5 18 -2 11
-18 27 -11 20 11 -5 14 -3 19 7 18 19 -4 59 11 90 34 15 11 31 17 35 13 8 -8
-18 -33 -71 -71 -16 -11 -36 -28 -45 -38 -9 -10 -30 -25 -47 -33 -17 -8 -41
-24 -53 -35 -18 -17 -19 -23 -8 -40 10 -18 8 -23 -17 -44 -17 -13 -33 -22 -38
-19 -4 3 -5 -2 -2 -10 3 -9 1 -16 -5 -16 -6 0 -11 6 -11 13 0 7 -7 4 -15 -7
-20 -26 -19 -37 2 -29 14 6 14 2 -4 -23 -11 -16 -30 -37 -42 -48 -11 -10 -18
-23 -15 -28 3 -5 -5 -19 -18 -31 -19 -17 -23 -28 -19 -52 l6 -30 22 45 c26 53
69 103 82 96 12 -8 2 -51 -18 -73 -11 -13 -15 -32 -13 -67 2 -40 -1 -52 -19
-63 -11 -9 -18 -21 -15 -29 3 -8 -1 -17 -10 -21 -9 -3 -14 -13 -11 -24 3 -10
-1 -20 -9 -23 -8 -3 -14 -18 -14 -33 0 -17 -8 -33 -20 -41 -11 -7 -20 -21 -20
-31 0 -11 -4 -21 -10 -23 -5 -1 -7 -13 -4 -26 6 -19 9 -20 23 -10 9 7 5 -1 -9
-16 -14 -16 -19 -26 -12 -22 6 4 12 3 12 -3 0 -5 -6 -14 -14 -18 -19 -11 -80
-103 -73 -110 4 -3 -5 -22 -18 -42 -32 -45 -31 -65 0 -79 15 -7 25 -8 25 -2 0
5 15 17 33 26 17 9 38 25 45 35 15 22 52 25 52 5 0 -7 -7 -19 -15 -26 -12 -10
-16 -9 -20 2 -4 11 -24 -4 -70 -50 -52 -52 -63 -68 -55 -82 12 -22 16 -82 6
-98 -4 -7 -2 -12 4 -12 6 0 13 7 16 15 4 8 12 15 20 15 8 0 14 4 14 8 0 4 19
35 43 67 23 33 51 80 62 105 11 25 22 47 26 50 4 3 9 14 11 25 2 14 -3 21 -19
23 -25 4 -32 22 -9 22 8 0 26 15 41 33 l26 32 -5 -50 c-3 -27 -3 -42 0 -32 3
9 9 17 14 17 5 0 7 8 4 18 -5 16 -5 16 6 -1 13 -20 6 -50 -22 -89 -11 -16 -17
-32 -14 -37 4 -5 2 -21 -4 -35 -6 -17 -6 -26 0 -26 6 0 10 -9 10 -20 0 -11 -4
-20 -9 -20 -5 0 -14 -21 -20 -47 -7 -27 -14 -57 -17 -68 -5 -19 -4 -19 10 -2
23 29 27 4 6 -36 -15 -28 -16 -35 -5 -31 10 4 15 0 15 -15 0 -25 20 -29 21 -3
0 9 3 12 6 5 7 -18 44 19 46 46 1 11 4 21 8 21 4 0 10 11 13 25 4 14 11 23 16
20 6 -4 8 -11 5 -16 -4 -5 -4 -9 -2 -9 3 0 23 35 45 78 57 109 76 142 85 142
16 0 5 -33 -33 -95 -22 -36 -40 -69 -40 -74 0 -4 -8 -19 -19 -32 -31 -40 -91
-156 -83 -163 3 -4 -1 -4 -11 0 -9 3 -17 1 -17 -4 0 -6 -6 -17 -13 -24 -69
-72 -106 -159 -73 -171 11 -4 23 7 41 37 14 23 25 48 25 54 0 7 5 12 11 12 5
0 7 5 4 10 -4 6 5 24 18 40 14 16 27 35 30 42 2 7 8 10 12 6 4 -4 -3 -24 -15
-45 -29 -49 -67 -165 -80 -245 -13 -80 -13 -76 8 -81 14 -4 14 -6 -5 -12 -18
-6 -23 -15 -23 -39 0 -22 3 -27 9 -17 5 8 16 11 26 8 9 -4 13 -3 10 2 -3 5 -1
12 5 16 6 4 10 -6 10 -24 0 -16 -5 -33 -10 -36 -15 -9 -1 -27 16 -21 8 3 14 1
14 -4 0 -6 -5 -10 -11 -10 -5 0 -15 -13 -20 -30 -6 -16 -15 -27 -20 -24 -5 3
-12 -3 -16 -12 -4 -10 -2 -19 5 -22 7 -2 9 -15 5 -35 l-6 -32 27 30 c14 17 26
35 26 41 0 15 68 79 76 71 9 -8 -24 -47 -40 -47 -6 -1 -22 -22 -35 -48 -13
-26 -35 -69 -48 -95 -21 -41 -25 -67 -29 -160 -3 -62 -7 -131 -9 -154 -5 -59
16 -47 48 25 14 31 33 66 42 77 16 19 16 19 10 -10 -3 -16 -8 -38 -11 -47 -8
-26 11 -22 30 7 9 14 21 25 27 25 7 0 5 -9 -5 -22 -43 -60 -67 -100 -62 -105
3 -3 14 5 25 18 l19 24 -4 -30 c-1 -17 -11 -48 -20 -70 -9 -22 -22 -60 -28
-85 -13 -52 -14 -247 -2 -272 5 -11 4 -18 -3 -18 -5 0 -15 18 -21 40 -6 22
-15 40 -21 40 -6 0 -8 -8 -6 -17 13 -44 18 -113 9 -113 -10 0 -32 -52 -32 -76
0 -7 7 -20 16 -28 14 -14 18 -13 39 12 16 19 22 36 18 55 -3 16 -1 27 6 27 6
0 11 7 11 15 0 27 18 16 22 -15 3 -22 1 -27 -8 -20 -9 8 -13 -4 -19 -46 -4
-32 -9 -64 -13 -72 -3 -10 -1 -13 6 -9 6 4 13 21 17 37 4 17 11 28 16 24 5 -3
9 2 9 10 0 24 20 30 35 10 14 -18 14 -18 15 3 0 12 -6 24 -12 27 -7 3 -3 3 10
0 17 -4 22 -1 22 15 0 15 6 21 21 21 14 0 19 5 16 14 -4 10 -1 13 7 10 7 -3
19 2 26 11 11 13 10 14 -4 9 -22 -8 -20 12 3 28 21 15 40 72 35 106 -2 12 1
22 8 22 7 0 52 -23 101 -51 70 -39 92 -48 98 -37 8 13 10 11 13 -14 1 -15 26
-23 26 -9 0 16 14 13 37 -6 11 -10 18 -24 15 -31 -3 -10 -8 -9 -23 4 -10 9
-19 15 -19 12 0 -2 15 -17 32 -34 18 -16 30 -25 26 -20 -7 8 14 36 27 36 3 0
16 -9 28 -20 24 -23 62 -23 62 0 0 9 -11 16 -28 18 -15 2 -25 8 -22 13 4 5 -4
9 -17 9 -27 0 -28 1 -193 104 -89 55 -123 81 -113 87 7 5 14 4 16 -1 4 -12 22
-13 22 -1 0 5 -14 14 -30 21 -20 8 -27 16 -21 24 4 6 11 36 15 66 4 30 13 62
20 70 20 22 37 83 40 138 2 26 6 54 9 62 4 8 6 22 5 30 -3 37 3 61 21 79 10
10 22 28 26 40 5 18 2 21 -19 21 -38 0 -31 13 19 35 27 11 40 22 33 26 -9 6
-9 17 -1 43 12 38 6 44 -29 25 -11 -6 -22 -8 -25 -5 -6 6 58 46 70 43 12 -3
27 27 32 60 2 16 7 37 11 47 6 15 4 17 -6 11 -9 -6 -11 -4 -5 4 5 9 13 7 31
-10 13 -12 24 -18 24 -12 0 6 -6 13 -14 16 -8 3 -15 14 -15 24 -1 10 -1 25 -2
33 -1 8 0 20 2 25 2 6 0 11 -6 13 -5 1 -11 -1 -11 -5 -5 -29 -18 -53 -28 -53
-17 -1 -43 -43 -41 -67 1 -13 -3 -23 -8 -23 -5 0 -7 19 -5 44 3 25 2 48 -2 53
-15 15 8 52 29 48 13 -2 22 3 26 16 4 11 10 17 15 14 5 -3 11 -1 15 5 3 5 -1
10 -9 10 -19 0 -21 30 -3 50 9 11 8 11 -7 0 -18 -14 -19 -13 -13 3 4 11 2 17
-7 17 -15 0 -28 38 -19 53 4 6 11 0 16 -14 6 -17 11 -20 15 -10 2 8 -5 22 -17
32 -11 9 -21 24 -21 32 0 8 -10 18 -22 22 l-23 7 25 8 c14 4 21 8 16 9 -5 1
-3 7 3 15 7 9 8 17 2 20 -10 7 -9 31 2 42 11 11 8 44 -4 44 -6 0 -8 7 -5 16
19 50 18 62 -6 62 -19 0 -29 -11 -48 -52 -12 -28 -28 -54 -34 -59 -7 -5 -5
-12 7 -21 15 -11 15 -15 3 -25 -11 -9 -15 -9 -19 1 -2 7 -8 10 -12 6 -4 -4 6
-15 24 -25 17 -10 31 -24 31 -31 0 -8 -15 -2 -40 14 -22 14 -46 24 -54 21 -10
-4 -12 0 -9 14 3 10 1 19 -3 19 -17 0 -31 -15 -37 -38 -4 -19 -2 -22 14 -17
22 7 25 -7 4 -25 -19 -16 -60 -3 -45 15 6 7 8 20 4 29 -4 10 0 18 10 22 19 7
15 47 -7 69 -12 12 -13 22 -4 50 5 19 16 35 23 35 6 0 11 11 10 25 0 14 -7 25
-15 25 -11 0 -10 4 4 14 10 7 16 20 12 28 -3 9 -1 20 5 26 6 6 12 21 13 34 1
13 3 29 4 36 0 6 10 12 21 12 23 0 29 -37 7 -46 -8 -3 -13 -25 -13 -64 0 -33
1 -60 3 -60 7 0 27 65 24 75 -1 5 1 6 6 2 8 -8 9 -13 12 -39 2 -18 20 4 24 29
2 12 21 41 43 65 22 24 50 61 64 83 13 22 35 51 47 65 13 14 23 32 23 41 0 9
7 20 15 23 12 4 14 14 9 41 -5 26 -2 41 10 54 9 10 15 28 14 40 -2 15 5 29 20
39 l24 15 -7 -39 c-4 -21 -9 -48 -11 -59 -4 -15 1 -13 20 10 14 17 37 42 51
58 14 15 37 49 51 77 15 30 30 47 38 44 7 -3 19 2 26 10 7 9 16 13 22 10 5 -3
-10 -27 -34 -54 -67 -75 -95 -116 -90 -133 1 -5 -2 -6 -6 -3 -5 3 -28 -21 -51
-54 -23 -33 -51 -65 -62 -70 -10 -6 -19 -20 -19 -32 0 -17 3 -19 12 -10 22 22
29 12 12 -19 -12 -24 -13 -34 -4 -39 8 -5 7 -9 -4 -13 -13 -5 -19 -48 -6 -47
3 1 21 23 40 50 19 27 36 47 38 45 2 -2 -18 -43 -44 -92 -27 -48 -47 -93 -46
-100 1 -6 -2 -14 -8 -18 -5 -3 -10 -1 -10 5 0 21 -18 1 -23 -26 -3 -18 -1 -22
6 -15 6 6 14 11 18 11 9 0 -6 -77 -19 -92 -5 -7 -10 -46 -11 -87 0 -63 1 -71
14 -61 8 7 15 19 15 26 0 8 7 14 15 14 11 0 15 -11 15 -42 0 -32 3 -39 10 -28
5 8 10 34 10 58 0 32 -4 42 -16 42 -13 0 -15 6 -9 28 4 15 8 43 9 62 2 23 8
36 18 38 10 2 14 10 11 21 -2 10 2 51 11 92 14 70 27 106 62 173 13 26 13 28
-1 16 -18 -15 -19 -11 -5 25 7 18 15 25 25 21 9 -3 19 3 26 15 6 11 35 45 65
75 30 30 54 59 54 65 0 10 50 33 57 26 2 -2 -6 -15 -17 -30 -11 -14 -20 -28
-20 -32 0 -4 -13 -24 -29 -44 -26 -34 -44 -77 -45 -111 -1 -16 -22 -73 -37
-103 -21 -39 12 -44 71 -10 55 31 67 38 82 50 7 7 26 16 40 22 44 17 24 -11
-27 -38 -25 -13 -45 -28 -45 -32 0 -5 -6 -9 -14 -9 -27 0 -59 -38 -71 -83 -9
-34 -9 -47 -1 -47 18 1 64 46 68 66 2 11 11 18 21 16 10 -2 19 6 23 22 3 14
13 31 22 38 13 11 14 11 7 -2 -5 -8 -10 -21 -10 -30 -1 -8 -5 -26 -9 -39 -9
-27 -14 -30 85 47 72 54 87 54 23 0 -27 -24 -68 -62 -91 -84 -24 -23 -43 -39
-43 -36 0 3 -13 -7 -29 -22 -29 -28 -30 -28 -24 -5 4 13 11 27 17 31 6 4 7 10
4 14 -4 3 -22 -6 -40 -21 -24 -20 -35 -39 -40 -69 -9 -59 -9 -168 0 -162 5 3
8 -14 9 -37 0 -23 4 -55 8 -70 5 -19 3 -32 -5 -40 -10 -9 -11 -9 -5 1 6 11 3
11 -14 0 -14 -9 -21 -23 -21 -45 0 -26 -3 -31 -17 -26 -11 4 -14 3 -9 -5 4 -7
2 -12 -4 -12 -8 0 -11 -14 -8 -40 2 -22 0 -40 -4 -40 -7 0 7 -58 17 -68 13
-13 16 10 7 59 -11 57 -7 79 13 79 16 0 27 -78 14 -102 -7 -14 -6 -18 5 -18 8
0 25 -14 37 -32 13 -17 25 -26 27 -20 6 18 22 15 22 -4 0 -9 8 -26 18 -39 l18
-23 11 39 c8 31 8 39 -3 39 -14 0 -16 13 -20 153 -1 46 2 67 11 67 6 0 12 7
12 15 0 17 -13 20 -22 5 -3 -5 -11 -10 -17 -10 -6 0 1 11 16 25 15 14 31 25
37 25 5 0 9 7 9 15 0 19 44 62 58 57 7 -2 16 8 22 23 9 22 13 25 25 15 12 -10
16 -9 21 3 3 9 3 21 -1 27 -6 9 57 80 71 80 3 0 16 7 29 16 19 12 22 20 16 37
-10 26 6 67 26 67 7 0 13 9 13 19 0 21 15 37 23 24 2 -5 3 -3 1 2 -2 14 17 41
35 46 23 8 21 69 -5 167 -13 52 -24 105 -24 118 0 13 -5 24 -11 24 -5 0 -8 -4
-5 -9 8 -13 -4 -42 -15 -35 -16 9 -10 71 7 78 9 3 14 13 11 21 -4 9 -1 12 8 9
13 -5 17 -23 31 -124 3 -25 12 -58 20 -74 8 -16 14 -34 14 -41 0 -18 60 -75
79 -75 9 0 22 5 27 10 8 8 15 6 23 -4 11 -13 10 -18 -3 -31 -17 -18 -21 -35
-8 -35 5 0 17 9 27 20 21 23 39 16 32 -12 -4 -14 -1 -18 8 -14 18 6 39 -62 28
-90 -6 -17 -5 -17 10 -5 9 7 17 22 17 32 0 26 28 24 32 -3 2 -14 13 -24 30
-29 35 -9 45 2 16 18 l-23 12 26 1 c28 0 76 -29 49 -30 -12 -1 -11 -3 3 -14
12 -9 14 -16 8 -21 -6 -3 -11 -15 -11 -26 0 -16 5 -19 20 -14 17 5 20 2 20
-20 0 -14 6 -33 13 -41 42 -52 77 -86 77 -76 0 7 7 12 15 12 8 0 15 7 15 15 0
11 13 15 54 15 46 0 58 -4 74 -25 19 -24 20 -24 25 -5 6 23 27 27 27 6 0 -7 8
-16 18 -20 9 -3 23 -9 31 -12 10 -5 12 -2 8 9 -7 18 8 32 23 22 8 -5 7 -12 -2
-22 -10 -13 -9 -15 6 -12 19 4 23 13 33 77 3 17 9 32 14 32 10 0 12 -17 9 -69
-1 -22 2 -31 9 -27 6 4 11 -1 12 -11 0 -11 3 -13 6 -5 4 10 8 10 19 1 8 -6 11
-16 8 -21 -4 -6 5 -8 24 -3 25 5 31 3 37 -15 9 -29 45 -70 62 -70 7 0 13 3 13
6 0 10 -34 69 -45 76 -6 5 -6 8 0 8 5 0 4 5 -3 12 -7 7 -12 17 -12 22 0 6 16
-6 35 -27 19 -21 35 -46 35 -55 0 -13 2 -14 9 -4 4 7 12 12 17 11 5 -1 17 1
27 6 10 4 26 1 40 -7 12 -8 38 -15 57 -16 19 0 39 -7 45 -14 5 -7 23 -19 40
-26 25 -12 31 -11 41 2 17 24 43 19 56 -9 9 -21 18 -25 55 -25 30 0 43 4 43
14 0 7 14 16 30 20 l31 6 -16 31 c-9 16 -31 43 -48 59 -18 16 -29 31 -26 34
10 10 92 -71 85 -82 -4 -6 1 -15 10 -20 13 -7 14 -13 5 -31 -8 -14 -8 -21 -1
-21 5 0 10 -6 10 -14 0 -8 6 -14 13 -13 32 1 48 -4 42 -13 -9 -15 -41 -12 -55
5 -7 8 -26 15 -42 15 -16 0 -31 -6 -34 -15 -4 -8 -13 -15 -21 -15 -9 0 -11 5
-7 13 4 6 -2 4 -14 -7 -15 -13 -30 -17 -52 -13 -16 4 -30 2 -30 -3 0 -4 -21
-6 -47 -3 -92 9 -135 10 -121 2 9 -6 10 -9 1 -9 -7 0 -28 16 -47 35 -41 41
-63 47 -45 13 7 -13 17 -26 23 -30 8 -5 7 -11 -1 -19 -10 -10 -19 -6 -41 19
-27 30 -51 44 -37 22 4 -7 -2 -9 -17 -5 -12 3 -54 7 -92 9 -39 1 -72 8 -74 14
-2 6 -10 8 -18 5 -8 -3 -14 1 -14 10 0 8 -7 17 -15 21 -8 3 -15 1 -15 -4 0 -6
5 -10 12 -10 8 0 9 -3 2 -10 -7 -7 -20 -7 -35 -2 -13 4 -82 8 -154 7 -113 0
-130 -2 -133 -17 -3 -14 5 -16 52 -13 31 1 56 -1 56 -5 0 -11 151 -39 228 -41
15 -1 27 -10 35 -28 13 -29 27 -42 39 -35 10 6 116 6 144 0 11 -2 44 -11 73
-20 28 -8 58 -13 67 -9 8 3 23 -2 32 -10 18 -17 104 -38 134 -34 9 1 16 -2 15
-8 -1 -5 -7 -9 -13 -7 -15 3 -37 -59 -28 -81 6 -17 -28 -41 -41 -29 -5 4 -5 2
-2 -5 4 -6 16 -9 27 -6 12 3 20 0 20 -7 0 -6 -9 -14 -20 -17 -11 -3 -17 -10
-14 -17 4 -6 -6 1 -21 16 -24 22 -26 29 -16 42 7 8 10 20 6 26 -5 8 -12 4 -22
-9 -8 -12 -21 -21 -30 -21 -12 0 -13 -3 -3 -15 6 -8 9 -19 5 -24 -9 -16 26
-63 43 -56 23 8 49 -3 55 -25 4 -16 13 -18 58 -16 29 1 54 7 56 13 3 7 17 9
39 6 26 -4 34 -2 34 9 0 9 7 22 16 29 14 11 16 10 13 -11 -2 -14 1 -26 6 -28
5 -1 9 10 10 25 0 19 -7 31 -23 39 -13 6 -24 15 -25 20 -1 5 -15 8 -30 6 -17
-1 -26 2 -22 8 3 5 -1 10 -9 10 -10 0 -16 -9 -16 -22 l0 -22 -20 22 c-12 12
-32 22 -45 22 l-25 0 28 40 c15 21 32 39 39 40 6 0 21 16 33 35 22 36 35 41
58 26 8 -5 11 -17 7 -33 -8 -33 10 -45 35 -23 22 20 70 13 70 -9 0 -8 7 -17
16 -20 8 -3 12 -10 9 -16 -10 -17 23 -11 62 10 48 26 52 25 87 -7 19 -17 31
-23 34 -15 2 7 8 12 13 12 5 0 3 -11 -3 -25 -13 -29 -38 -33 -39 -7 0 9 -6 2
-13 -17 -14 -40 -45 -54 -96 -46 -19 3 -42 1 -50 -4 -20 -14 -6 -25 16 -13 13
7 24 6 38 -3 22 -14 131 -23 143 -12 13 13 35 7 29 -8 -6 -18 -5 -18 30 -5 16
7 31 7 38 1 6 -5 34 -9 61 -9 68 1 182 -9 194 -16 5 -3 11 0 14 6 3 10 9 8 23
-4 18 -17 17 -18 -10 -18 l-29 0 27 -25 c28 -26 51 -32 61 -15 15 24 93 5 120
-28 14 -17 71 -12 68 6 -4 15 9 15 42 0 21 -9 31 -9 46 0 11 7 30 9 44 6 14
-3 31 -2 38 4 14 12 77 4 77 -10 0 -5 5 -6 11 -2 6 3 16 0 21 -7 7 -11 11 -11
15 -1 7 19 20 15 53 -18 17 -17 34 -30 39 -30 5 0 5 19 0 43 -11 59 -11 79 2
72 6 -4 8 -9 5 -12 -2 -3 -1 -15 4 -28 5 -13 11 -42 15 -64 3 -23 13 -60 20
-82 8 -23 13 -45 10 -49 -3 -5 -1 -10 4 -12 5 -1 13 -15 16 -30 6 -23 4 -28
-12 -28 -10 0 -24 -5 -31 -12 -9 -9 -12 -7 -12 11 0 20 -4 23 -26 18 -18 -3
-24 -1 -20 9 5 14 0 15 -79 20 -16 1 -38 2 -47 3 -10 0 -20 12 -24 25 -4 17
-11 23 -21 19 -9 -4 -19 1 -25 10 -5 10 -18 17 -29 17 -11 0 -22 6 -25 14 -4
11 -19 14 -54 11 -39 -3 -50 0 -53 13 -4 14 -6 13 -12 -5 -4 -12 -13 -19 -20
-17 -7 3 -16 -4 -20 -15 -8 -25 -27 -27 -45 -6 -12 14 -15 14 -31 -1 -11 -10
-19 -23 -19 -31 0 -15 -16 -17 -25 -3 -3 6 -11 10 -18 10 -8 0 -8 -3 1 -12 18
-18 15 -23 -13 -24 -14 -1 -22 2 -19 7 3 5 -2 6 -10 3 -9 -3 -16 -12 -16 -19
0 -7 -9 -15 -20 -18 -11 -3 -20 -14 -20 -25 0 -25 -31 -53 -37 -34 -7 20 -20
14 -27 -13 -4 -14 -11 -25 -16 -25 -14 0 -12 27 3 33 6 3 2 6 -10 6 -19 1 -23
-4 -23 -31 0 -30 -1 -31 -17 -16 -15 16 -18 15 -41 -9 -16 -17 -22 -34 -19
-49 3 -16 0 -24 -10 -24 -8 0 -11 5 -8 10 3 6 1 10 -5 10 -16 0 -40 -63 -40
-105 0 -22 -5 -35 -13 -35 -8 0 -14 -6 -14 -12 0 -7 -4 -30 -8 -50 -5 -27 -4
-38 4 -38 7 0 9 -5 6 -10 -4 -6 7 -13 24 -16 32 -7 33 -24 1 -24 -10 0 -20 -7
-24 -15 -8 -21 -33 -19 -46 4 -13 25 -13 27 6 45 8 9 11 16 5 16 -6 0 -11 7
-11 16 0 9 5 12 12 8 7 -5 8 -3 4 5 -5 7 -11 10 -14 6 -3 -3 -12 5 -20 17 -12
21 -13 20 -6 -17 3 -22 6 -50 6 -62 0 -31 -33 -70 -57 -67 -11 2 -23 -2 -27
-9 -6 -9 -11 -8 -19 3 -8 12 -9 9 -5 -12 7 -30 -2 -61 -15 -52 -5 3 -9 -19 -9
-48 -1 -71 -12 -83 -80 -82 -86 2 -288 14 -360 20 -106 10 -190 12 -190 4 0
-22 39 -33 136 -38 96 -4 105 -7 101 -23 -6 -22 -4 -22 43 -10 19 5 89 12 155
15 94 4 124 2 138 -8 16 -12 17 -17 5 -37 -21 -38 -39 -48 -60 -36 -20 13 -38
1 -42 -29 -2 -16 -19 -28 -77 -56 -4 -2 -10 -18 -14 -35 -5 -26 -3 -33 9 -33
9 0 16 -4 16 -10 0 -5 10 -10 23 -10 18 0 19 2 7 10 -8 5 -10 10 -5 10 21 0
38 -19 38 -44 0 -27 -18 -56 -35 -56 -5 0 -18 -8 -29 -19 -20 -18 -20 -18 10
-31 16 -6 45 -28 65 -47 l35 -36 11 27 10 27 22 -21 c29 -26 38 -25 38 5 0 18
-10 31 -31 44 -18 11 -26 22 -20 25 6 4 11 20 11 37 0 34 8 36 38 9 12 -11 25
-20 30 -20 5 0 8 -11 7 -25 -2 -14 0 -23 4 -20 5 2 13 -6 19 -18 14 -30 23
-87 14 -87 -5 0 -23 -13 -42 -30 -25 -23 -39 -28 -58 -23 -21 5 -24 3 -19 -11
4 -10 7 -19 7 -22 0 -2 7 -1 15 2 8 4 15 1 15 -5 0 -16 23 -14 46 4 16 12 17
16 4 24 -8 6 -12 11 -10 13 3 2 19 13 37 26 18 12 37 22 43 22 18 0 10 -32
-10 -37 -19 -5 -19 -6 3 -23 19 -16 20 -22 9 -37 -22 -32 -25 -44 -13 -56 9
-9 14 -9 20 1 5 9 8 2 9 -17 0 -17 -3 -31 -8 -31 -4 0 -10 -9 -13 -21 -5 -17
-3 -18 9 -8 8 6 18 9 21 5 4 -4 1 -11 -6 -15 -10 -7 -10 -10 -1 -16 14 -9 30
11 30 39 0 15 2 16 15 6 9 -7 14 -19 11 -27 -3 -8 2 -13 14 -13 10 0 25 -9 33
-20 9 -13 27 -22 48 -23 19 -1 39 -6 45 -10 15 -9 23 12 18 49 -2 16 -1 21 2
12 3 -10 10 -18 15 -18 5 0 9 -21 9 -47 0 -27 7 -57 15 -67 10 -13 11 -23 5
-31 -10 -12 24 -97 41 -103 15 -6 10 -29 -7 -36 -23 -9 -24 -8 -34 20 -8 19
-16 25 -30 21 -11 -3 -24 1 -31 9 -6 8 -24 14 -40 14 -19 0 -30 6 -34 20 -3
11 -12 20 -18 20 -44 -1 -57 -60 -27 -122 11 -23 20 -48 20 -55 0 -7 7 -13 15
-13 9 0 12 -6 8 -17 -4 -10 -2 -14 4 -10 7 5 9 0 6 -12 -3 -11 5 -28 21 -44
17 -17 21 -27 13 -31 -8 -3 -6 -9 7 -20 26 -21 24 -90 -4 -149 -24 -52 -57
-78 -70 -57 -4 7 -13 9 -20 5 -8 -5 -11 -4 -6 3 10 17 -16 27 -28 11 -6 -8
-27 -26 -46 -39 -53 -36 -83 -68 -75 -80 4 -6 2 -9 -3 -8 -5 2 -18 -6 -29 -17
-21 -23 -51 -43 -75 -51 -10 -4 -18 -11 -19 -18 0 -6 -14 -22 -30 -35 -27 -21
-37 -23 -100 -19 -39 3 -76 11 -82 17 -6 6 -21 11 -34 11 -13 0 -40 9 -60 20
-21 11 -43 20 -49 20 -7 0 -10 8 -7 20 5 17 0 20 -29 20 -19 0 -40 -6 -47 -12
-10 -11 -11 -10 -6 3 5 12 -2 20 -26 28 -18 6 -40 18 -50 27 -9 8 -20 14 -25
13 -34 -6 -43 1 -34 26 5 14 6 25 2 26 -4 0 3 4 16 9 12 5 22 16 22 25 0 29
-44 11 -51 -21 -4 -16 -7 -21 -8 -11 0 10 -9 21 -18 24 -10 4 -23 13 -29 21
-6 9 -33 16 -70 18 -56 3 -61 6 -100 50 -34 38 -43 56 -49 100 -4 38 -11 54
-21 54 -8 0 -12 5 -9 10 3 6 -1 10 -9 10 -10 0 -13 -6 -10 -15 4 -8 1 -15 -5
-15 -6 0 -11 -7 -11 -16 0 -8 4 -12 10 -9 6 3 7 -1 4 -9 -4 -9 1 -18 10 -22 9
-3 14 -10 11 -14 -3 -5 4 -18 16 -29 l22 -21 -27 -25 c-30 -28 -46 -31 -64
-13 -10 10 -15 10 -21 -1 -6 -10 -13 -10 -29 -2 -16 8 -21 7 -26 -6 -4 -9 -2
-21 4 -27 7 -7 10 -6 10 2 0 7 4 12 9 12 5 0 9 -11 9 -24 0 -15 -5 -23 -13
-20 -19 8 -40 54 -37 80 6 41 -16 26 -23 -16 -6 -35 -8 -38 -26 -27 -10 6 -20
18 -22 27 -2 11 -14 4 -41 -25 -22 -22 -34 -30 -28 -19 6 12 11 34 10 50 -1
16 2 37 6 47 6 12 4 17 -8 17 -9 0 -16 -7 -16 -15 0 -8 -7 -15 -15 -15 -10 0
-14 9 -11 30 2 17 -1 30 -8 30 -6 0 1 10 17 21 15 11 27 26 27 33 0 15 36 46
54 46 7 0 21 9 31 20 10 11 26 22 35 25 10 3 20 14 23 24 2 10 17 25 32 32 35
17 50 41 41 64 -5 14 -14 17 -48 12 -23 -3 -47 -12 -53 -21 -14 -18 -43 -26
-118 -30 -43 -2 -63 -8 -77 -24 -11 -12 -20 -26 -20 -32 0 -5 -7 -10 -15 -10
-8 0 -22 -14 -30 -30 -9 -17 -20 -28 -25 -25 -9 6 -64 -46 -81 -76 -5 -11 -15
-17 -20 -13 -6 3 -13 -4 -16 -15 -3 -12 -18 -28 -34 -37 -16 -8 -29 -19 -29
-24 0 -6 -8 -10 -17 -10 -14 0 -15 -2 -4 -9 10 -6 10 -10 1 -16 -6 -4 -14 -4
-17 -1 -3 3 -11 -2 -18 -11 -7 -9 -21 -17 -32 -18 -11 0 -36 -14 -54 -29 -19
-15 -42 -34 -52 -42 -23 -19 -41 -18 -33 2 3 9 2 12 -5 9 -5 -4 -7 -15 -4 -26
5 -15 1 -19 -16 -19 -17 0 -19 -3 -10 -14 9 -10 8 -16 -4 -26 -13 -11 -14 -10
-9 6 4 12 -5 7 -23 -13 -16 -18 -34 -33 -41 -33 -7 0 -12 -6 -12 -12 -1 -7
-21 -29 -45 -48 -29 -22 -41 -38 -35 -44 13 -13 13 -29 0 -21 -5 3 -10 0 -11
-7 -1 -7 -2 -24 -2 -38 -2 -20 -7 -24 -24 -23 -17 2 -23 -2 -23 -17 0 -17 4
-19 26 -14 19 5 25 3 23 -7 -1 -8 3 -27 9 -42 8 -19 9 -34 2 -46 -8 -16 -6
-17 15 -13 14 2 25 0 25 -7 0 -5 -6 -8 -14 -5 -8 3 -16 -3 -19 -16 -5 -19 -3
-21 20 -15 26 6 26 6 20 -40 -7 -45 -6 -45 16 -34 19 10 20 10 11 -2 -6 -8
-14 -23 -18 -34 -6 -16 -5 -18 5 -7 20 19 30 14 17 -9 -11 -17 -10 -22 6 -35
11 -8 29 -14 40 -14 15 0 17 -3 9 -11 -22 -22 -3 -40 33 -33 35 6 38 2 37 -44
-1 -6 4 -12 9 -12 5 0 3 -7 -6 -15 -10 -11 -13 -26 -9 -45 6 -31 -13 -90 -29
-90 -5 0 -4 9 2 19 14 28 12 41 -5 35 -14 -6 -19 6 -18 43 1 7 -4 13 -9 13 -6
0 -8 -9 -5 -20 3 -12 0 -20 -7 -20 -7 0 -23 -9 -36 -20 -29 -25 -39 -26 -17
-2 10 10 17 24 17 30 0 20 -28 13 -35 -8 -9 -28 -25 -15 -25 21 0 20 -9 39
-27 55 -24 22 -25 27 -13 49 10 18 24 26 56 31 45 6 61 24 22 24 -12 0 -30 8
-41 17 -19 18 -20 17 -8 -5 13 -25 6 -46 -8 -24 -6 10 -11 10 -21 -3 -17 -20
-34 -19 -26 2 4 9 1 20 -6 24 -15 10 17 49 41 49 12 0 13 2 2 13 -11 10 -14 9
-18 -1 -6 -14 -53 25 -53 45 0 6 -5 15 -12 19 -6 4 -8 3 -5 -3 4 -6 0 -14 -9
-17 -22 -8 -24 -8 -20 7 16 50 17 69 2 64 -21 -8 -29 8 -16 33 13 24 55 28 46
4 -3 -8 -2 -12 4 -9 16 10 12 35 -5 35 -9 0 -18 7 -21 15 -4 8 -10 12 -15 9
-5 -3 -9 0 -9 6 0 6 11 16 25 22 14 6 25 15 25 20 0 7 -24 12 -44 9 -5 -1 -5
6 -1 16 3 10 8 32 10 50 3 35 -18 51 -41 32 -11 -9 -14 -8 -14 5 0 10 -8 16
-22 16 -21 0 -21 0 -2 15 18 14 18 14 0 15 -12 0 -16 5 -12 15 6 18 -12 75
-25 75 -5 0 -19 -6 -30 -12 -18 -11 -23 -10 -27 1 -3 10 -9 8 -23 -10 l-18
-24 6 24 c5 21 3 23 -16 18 -21 -5 -22 -3 -17 26 4 26 1 35 -18 49 l-23 17 2
-40 c2 -32 0 -37 -11 -28 -11 9 -14 8 -14 -5 0 -9 -4 -16 -10 -16 -5 0 -7 13
-3 30 3 17 3 30 0 30 -10 0 -38 -66 -35 -81 2 -8 -3 -13 -11 -11 -9 2 -12 -4
-8 -19 6 -22 -18 -69 -35 -69 -6 0 -8 11 -6 25 6 28 -1 31 -21 13 -11 -11 -13
-10 -8 5 4 11 1 17 -8 17 -8 0 -15 -5 -15 -11 0 -5 -12 -14 -27 -20 -29 -10
-79 -75 -75 -97 2 -7 -4 -15 -13 -18 -8 -3 -15 -15 -15 -25 0 -21 16 -26 23
-6 2 6 10 -7 16 -30 6 -24 15 -43 19 -43 4 0 18 13 32 29 13 17 27 28 32 25
12 -7 10 -54 -2 -54 -5 0 -10 5 -10 10 0 23 -21 7 -26 -20 -7 -31 -36 -42 -50
-18 -5 7 -11 5 -21 -7 -18 -25 -17 -41 2 -25 22 18 30 -11 17 -60 -10 -42 -4
-54 22 -44 14 6 14 2 1 -36 -19 -53 -19 -70 -1 -70 17 0 29 27 16 35 -6 4 -10
10 -10 16 0 5 8 4 18 -2 13 -8 17 -20 14 -39 -2 -15 1 -37 7 -47 7 -13 7 -23
0 -30 -6 -6 -6 -25 0 -53 5 -24 8 -47 5 -51 -2 -4 3 -10 12 -13 13 -5 15 -16
12 -51 -3 -26 -1 -45 4 -45 6 0 7 -7 4 -16 -4 -9 -1 -23 5 -30 9 -11 6 -14
-15 -14 -15 0 -25 4 -22 9 4 5 -3 7 -15 4 -17 -5 -14 -8 20 -26 51 -26 68 -73
37 -105 -10 -10 -23 1 -67 57 -60 79 -104 103 -186 104 -43 1 -165 -32 -203
-55 -8 -5 -28 -16 -45 -26 -16 -9 -78 -66 -138 -126 l-108 -110 -72 -4 c-40
-2 -108 -3 -151 -4 -74 0 -81 2 -105 29 -51 55 -132 169 -156 220 -33 69 -61
87 -119 79 -24 -4 -52 -14 -62 -22 -18 -15 -18 -15 4 -11 33 7 13 -14 -35 -39
-21 -10 -53 -32 -71 -49 -23 -21 -36 -27 -46 -20 -118 90 -145 102 -236 111
-57 6 -100 26 -100 47 -1 17 -39 60 -75 83 -53 35 -99 45 -194 42 l-91 -3 0
-1157 0 -1158 4440 0 c2542 0 4440 4 4440 9 0 5 -7 25 -15 45 -18 42 -73 85
-142 111 -26 10 -53 22 -60 27 -6 5 -39 13 -74 19 -34 5 -73 19 -87 29 -14 11
-36 20 -51 20 -14 0 -46 12 -71 25 -67 37 -130 65 -145 65 -7 0 -33 8 -57 18
-24 11 -73 22 -111 25 -37 4 -87 15 -110 25 -24 11 -69 22 -99 26 -31 4 -62
13 -68 21 -6 7 -30 17 -53 20 -39 7 -107 33 -203 76 -22 11 -49 19 -60 19 -24
0 -105 28 -122 43 -40 33 -130 58 -221 62 -82 4 -99 8 -142 35 -27 16 -54 30
-60 30 -6 0 -33 18 -60 40 -27 22 -71 58 -98 80 -49 39 -128 80 -157 80 -8 0
-37 11 -64 25 -43 22 -80 34 -185 61 -11 3 -54 8 -95 11 -92 7 -208 44 -275
88 -36 24 -60 50 -85 95 -19 34 -48 75 -65 90 -47 46 -151 95 -199 93 -23 0
-46 3 -52 8 -7 5 -31 15 -55 22 -36 10 -48 21 -68 56 -13 23 -31 45 -40 48 -9
4 -24 14 -33 24 -17 17 -17 19 1 31 10 7 25 27 34 43 8 17 25 38 38 49 17 15
19 20 8 27 -11 7 -11 9 3 9 10 0 22 17 33 48 40 111 86 170 160 207 11 6 25
25 31 44 6 18 16 36 24 41 7 4 10 12 7 17 -3 5 3 24 14 41 10 18 19 39 19 47
0 8 4 15 9 15 5 0 15 16 21 35 6 19 15 35 20 35 13 0 33 59 27 81 -4 15 0 23
14 26 10 3 19 13 19 22 0 9 11 50 25 91 13 41 25 98 25 125 0 37 3 46 10 35 9
-13 12 -12 25 5 8 11 19 25 24 31 6 7 10 20 10 30 1 32 15 157 20 174 1 3 6
-2 12 -10 9 -12 10 -12 5 4 -4 11 -2 23 5 26 6 4 13 29 16 56 2 27 7 56 10 64
10 26 12 34 22 80 12 54 14 100 3 84 -4 -7 -16 -13 -27 -16 -16 -3 -20 -11
-18 -43 0 -22 -1 -30 -4 -17 -2 12 -9 22 -14 22 -6 0 -7 -5 -4 -11 4 -6 -2
-13 -14 -16 -11 -3 -18 -9 -16 -14 3 -4 -8 -22 -25 -39 -16 -17 -30 -37 -30
-45 0 -8 -8 -20 -18 -27 -10 -7 -22 -25 -26 -40 -3 -16 -10 -28 -15 -28 -11 0
-21 52 -13 65 15 24 -9 82 -29 69 -4 -2 -6 7 -3 21 2 14 0 25 -6 25 -9 0 -14
-15 -11 -33 3 -14 -22 -2 -29 14 -19 41 -29 54 -40 51 -8 -2 -10 3 -7 12 8 21
-30 43 -46 27 -6 -6 -16 -11 -21 -11 -6 0 -3 7 8 15 21 16 14 35 -14 35 -12 0
-20 8 -22 22 -2 13 -9 22 -16 20 -17 -3 -42 22 -42 43 0 11 -5 15 -15 11 -8
-3 -15 -1 -15 4 0 15 -33 50 -48 50 -7 0 -21 19 -32 43 -11 23 -25 50 -32 60
-16 21 0 52 27 52 26 0 45 56 38 112 -3 26 -5 61 -5 77 1 25 -1 28 -24 23 -14
-2 -39 2 -55 10 -30 15 -39 33 -15 33 22 0 47 47 40 75 -7 27 4 33 24 13 9 -9
12 -7 12 8 0 12 -9 29 -21 40 -14 13 -20 14 -17 4 4 -18 -62 -21 -69 -3 -3 7
-8 11 -12 9 -4 -3 -16 9 -26 25 -21 30 -49 31 -70 2 -9 -12 -20 -5 -63 35 -29
27 -52 55 -52 61 0 7 -10 12 -22 11 -37 -3 -40 -1 -24 16 21 20 21 41 1 24
-17 -14 -30 -7 -30 18 0 14 -19 29 -56 44 -4 2 -10 19 -14 38 l-6 35 20 -32
c11 -18 25 -33 29 -33 8 0 -7 89 -21 130 -11 31 -16 80 -9 80 5 0 16 -36 26
-79 18 -80 26 -93 79 -132 15 -11 27 -29 27 -40 0 -12 7 -19 20 -20 39 -3 45
-5 43 -17 -2 -7 0 -12 5 -13 4 -1 25 -3 46 -5 22 -1 43 -9 47 -15 4 -7 15 -13
26 -14 10 -1 25 -5 33 -8 60 -22 166 -23 206 -2 15 8 31 12 36 9 5 -3 15 0 23
6 9 7 28 10 45 7 16 -4 32 -2 35 4 8 12 37 8 47 -6 5 -6 8 -4 8 5 0 9 -5 21
-11 27 -7 7 0 9 26 7 29 -2 35 1 31 13 -3 8 -6 20 -6 26 0 9 -2 9 -8 0 -10
-16 -54 -5 -45 11 3 6 -2 3 -13 -6 -15 -13 -30 -16 -58 -11 -33 5 -41 3 -57
-18 l-19 -24 0 31 c0 24 -5 33 -22 37 -12 4 -25 1 -29 -5 -10 -16 -40 -2 -33
17 3 8 2 15 -3 15 -6 0 -15 11 -21 25 -7 15 -17 23 -26 19 -11 -4 -14 1 -11
23 3 29 6 30 39 17 16 -6 18 -4 13 9 -4 9 -10 24 -14 33 -5 14 -3 15 18 4 13
-7 27 -18 32 -24 5 -7 9 -8 15 -1 4 6 19 18 34 28 25 16 27 16 31 -1 4 -16 5
-16 6 1 1 10 9 17 20 17 10 0 29 11 42 25 14 14 35 25 51 25 15 0 30 5 33 10
4 6 11 7 17 4 8 -5 9 7 5 39 -4 26 -2 49 3 52 6 3 10 -2 10 -12 0 -10 10 -23
23 -28 12 -6 22 -19 22 -30 0 -16 6 -20 33 -17 30 2 32 0 26 -23 -3 -14 -2
-25 4 -25 5 0 12 14 16 32 5 23 2 34 -9 41 -21 11 -19 22 8 35 l22 11 -25 2
c-14 1 -32 0 -39 -1 -30 -4 8 26 49 40 22 7 40 17 40 22 0 4 -8 26 -17 48 -13
30 -22 39 -35 34 -15 -5 -18 1 -18 40 0 36 -5 50 -27 71 -15 14 -34 25 -41 25
-7 0 -15 7 -19 16 -5 13 -7 13 -14 2 -7 -10 -9 -8 -9 6 0 18 -26 45 -44 46 -4
0 -5 -7 -2 -16 3 -8 2 -12 -4 -9 -6 3 -10 13 -10 21 0 9 -10 14 -27 14 -22 0
-25 2 -13 10 11 7 7 10 -17 10 -18 0 -33 -4 -33 -9 0 -6 -16 -3 -35 5 -19 8
-38 13 -42 12 -5 -2 -9 2 -10 7 -3 11 316 12 403 2 102 -12 271 -37 323 -47
66 -12 77 -1 74 78 -1 7 6 12 16 10 10 -2 16 -13 16 -30 1 -15 -3 -24 -9 -21
-5 4 -7 -3 -4 -15 3 -12 1 -23 -6 -25 -7 -3 -3 -13 11 -26 l22 -21 15 31 c8
16 18 50 22 74 3 26 12 45 19 45 16 0 44 73 48 128 3 23 8 46 12 50 5 4 5 1 0
-7 -6 -10 -4 -12 4 -7 6 4 9 16 6 27 -4 10 -3 24 2 31 4 7 9 22 10 33 2 10 8
22 14 26 17 10 14 376 -3 405 -19 31 -41 199 -36 274 6 94 -3 169 -28 231 -22
51 -26 77 -24 129 5 118 -1 229 -13 227 -5 -1 -12 4 -15 12 -3 9 0 11 9 6 8
-5 6 0 -3 12 -10 11 -18 31 -18 45 0 14 -6 31 -13 37 -8 6 -12 23 -9 41 3 18
-2 40 -13 57 -15 22 -15 25 -2 20 11 -4 15 0 15 11 0 9 1 22 2 27 2 6 0 23 -5
38 -6 22 -10 26 -17 15 -7 -9 -8 -7 -4 7 7 23 -40 121 -73 154 -12 12 -21 28
-21 36 0 8 -5 15 -11 15 -5 0 -9 8 -8 18 4 30 -12 69 -37 93 -13 12 -24 28
-24 36 0 7 -4 13 -10 13 -5 0 -10 16 -10 35 0 20 -6 50 -13 68 -15 35 -12 61
6 50 7 -4 6 1 -2 11 -8 9 -20 15 -27 12 -8 -3 -19 3 -26 13 -7 10 -22 23 -33
29 -12 7 -14 12 -6 12 8 0 11 7 8 20 -4 16 -2 18 13 10 29 -16 34 -12 16 15
-20 30 -8 33 22 5 29 -28 28 -16 -3 24 -14 18 -25 39 -25 45 0 26 -34 71 -50
66 -9 -3 -31 6 -50 20 -19 14 -40 25 -48 25 -17 0 -11 22 8 28 7 3 10 0 6 -6
-3 -6 1 -8 13 -5 11 3 25 -4 37 -19 17 -21 64 -34 64 -18 0 12 -133 165 -146
168 -8 2 -14 10 -14 17 0 15 -60 65 -78 65 -6 0 -21 13 -34 29 -13 16 -42 40
-65 55 -24 14 -48 35 -55 45 -6 11 -17 17 -23 15 -14 -6 -58 17 -93 47 -15 13
-31 24 -37 24 -16 0 -75 29 -75 37 0 5 -7 8 -15 8 -8 0 -15 4 -15 9 0 5 -6 8
-12 7 -7 0 -13 4 -13 9 0 12 32 12 58 0 13 -5 10 1 -8 20 -34 34 -17 52 27 29
16 -8 33 -12 38 -9 5 3 12 0 16 -6 5 -8 3 -9 -5 -4 -9 5 -9 1 1 -14 14 -22 38
-29 38 -10 0 6 9 9 20 6 11 -3 18 0 17 6 -1 7 9 10 28 8 38 -4 34 -1 -40 37
-81 41 -107 48 -99 28 4 -11 0 -16 -14 -16 -12 0 -24 5 -27 10 -3 6 -15 10
-25 10 -10 0 -21 4 -25 9 -3 6 7 6 27 0 40 -11 38 -11 38 1 0 13 -148 58 -216
66 -31 4 -61 12 -67 18 -7 6 -28 11 -47 11 -23 0 -34 4 -33 13 2 6 -2 12 -7
13 -35 4 -98 7 -187 9 -57 1 -103 6 -103 10 0 5 8 8 18 8 9 -1 43 4 75 10 31
6 64 9 72 6 8 -4 15 -2 15 2 0 5 53 8 117 7 124 -1 231 -25 397 -88 47 -17 65
-21 57 -11 -10 12 -8 13 11 8 22 -5 22 -5 6 11 -9 9 -21 17 -27 17 -5 0 -24
12 -41 26 -17 15 -33 24 -36 21 -3 -3 -22 1 -41 10 -58 24 -205 51 -357 66
-15 2 -34 -2 -40 -9 -14 -14 -67 -7 -78 10 -6 8 -8 8 -8 0 0 -6 -12 -10 -27
-10 -16 1 -34 -3 -41 -8 -7 -5 -15 -6 -19 -3 -3 4 -12 2 -18 -3 -19 -16 -117
-17 -122 -2 -4 9 2 11 20 7 28 -7 67 1 67 15 0 4 -38 7 -84 7 -81 -2 -84 -1
-94 23 l-10 25 -7 -32 c-4 -18 -11 -31 -15 -28 -4 3 -14 -3 -21 -12 -13 -15
-11 -16 21 -9 95 18 110 19 110 4 0 -11 -15 -17 -52 -21 -75 -8 -248 -57 -308
-86 -8 -4 -26 -4 -40 0 -15 4 -18 7 -8 8 10 1 33 10 52 20 19 11 54 25 78 32
26 8 36 14 26 16 -27 6 -22 17 13 30 28 11 32 10 36 -7 9 -34 18 -22 19 25 2
48 -9 60 -20 23 -7 -22 -7 -22 -15 -3 -8 20 -8 20 -15 -1 -5 -16 -13 -20 -30
-17 -14 3 -41 0 -61 -7 -23 -8 -40 -9 -46 -3 -6 6 6 14 31 22 22 6 40 16 40
22 0 6 5 7 11 4 5 -4 19 1 30 11 10 9 19 14 19 9 0 -4 7 -2 15 5 8 7 12 16 9
21 -7 13 -44 11 -44 -2 0 -5 -5 -7 -11 -4 -6 4 -17 -1 -24 -11 -8 -11 -15 -14
-15 -7 0 8 -9 9 -32 2 -43 -11 -138 -61 -138 -71 0 -20 -3 -24 -23 -35 -21
-12 -21 -12 6 -13 37 0 28 -13 -28 -40 -25 -12 -43 -25 -40 -29 2 -4 -1 -8 -8
-9 -7 0 -23 -4 -36 -8 -37 -11 -17 12 31 37 60 30 38 35 -24 5 -29 -14 -69
-28 -88 -31 l-35 -5 35 17 35 17 -27 4 c-16 2 -28 7 -28 11 0 10 89 33 101 26
5 -4 9 1 9 9 0 9 8 16 19 16 23 0 36 -16 21 -23 -6 -3 -5 -4 2 -2 7 1 11 9 9
16 -2 8 -4 21 -4 29 0 8 -5 19 -11 23 -6 5 -1 5 12 2 13 -4 22 -2 22 5 0 6 14
23 30 37 36 30 38 55 8 75 -22 14 -70 30 -84 27 -4 0 -10 3 -13 9 -8 12 -71
33 -82 26 -5 -3 -9 1 -9 9 0 16 -70 19 -81 3 -4 -5 -14 -6 -23 -3 -14 6 -20
26 -19 65 1 6 -3 12 -8 12 -5 0 -9 -4 -9 -10z m180 -106 c0 -2 -7 -4 -15 -4
-8 0 -15 4 -15 10 0 5 7 7 15 4 8 -4 15 -8 15 -10z m-85 -4 c4 -6 -10 -9 -37
-9 l-43 2 35 7 c19 4 36 8 37 9 1 0 5 -3 8 -9z m-115 -26 c-19 -7 -43 -13 -52
-13 -17 -1 -17 0 0 17 12 12 28 16 52 13 l35 -4 -35 -13z m275 -39 c21 -18 24
-45 5 -45 -4 0 -24 16 -43 35 -35 35 -35 35 -10 33 14 -2 36 -12 48 -23z m269
-114 c6 -9 -35 -24 -43 -15 -6 5 18 24 31 24 4 0 9 -4 12 -9z m-119 -11 c-3
-5 -14 -10 -23 -10 -15 0 -15 2 -2 10 20 13 33 13 25 0z m1095 -30 c8 -5 12
-12 9 -15 -8 -8 -39 5 -39 16 0 11 11 11 30 -1z m-1520 -20 c0 -5 -13 -10 -29
-10 -17 0 -33 5 -36 10 -4 6 8 10 29 10 20 0 36 -4 36 -10z m60 0 c0 -5 -6
-10 -14 -10 -8 0 -18 5 -21 10 -3 6 3 10 14 10 12 0 21 -4 21 -10z m336 -5
c-11 -8 -27 -15 -35 -15 -13 1 -12 4 3 15 11 8 27 15 35 15 13 -1 12 -4 -3
-15z m504 -41 c0 -11 6 -15 18 -11 31 9 37 9 60 8 32 -2 27 -14 -16 -33 -34
-16 -112 -21 -112 -7 0 3 -11 4 -25 1 -14 -2 -25 0 -25 7 0 5 6 8 14 5 8 -3
17 -1 21 5 4 7 -7 11 -30 11 -22 0 -34 4 -30 10 4 6 9 9 13 6 4 -2 16 0 27 5
37 14 85 11 85 -7z m770 6 c0 -5 -2 -10 -4 -10 -3 0 -8 5 -11 10 -3 6 -1 10 4
10 6 0 11 -4 11 -10z m-571 -26 c-24 -12 -39 -10 -39 6 0 10 40 18 54 12 5 -3
-2 -11 -15 -18z m-1311 -18 c-7 -8 -16 -12 -21 -9 -11 7 2 23 19 23 12 0 12
-2 2 -14z m412 10 c0 -2 -9 -6 -20 -9 -11 -3 -18 -1 -14 4 5 9 34 13 34 5z
m-460 -31 c-7 -9 -15 -13 -19 -10 -3 3 1 10 9 15 21 14 24 12 10 -5z m1570 5
c0 -5 -9 -10 -20 -10 -11 0 -20 -4 -20 -9 0 -12 -39 -21 -46 -10 -3 5 4 9 16
9 11 0 23 7 26 15 7 17 44 21 44 5z m175 -22 c14 -6 25 -15 25 -21 0 -5 -8 -6
-17 -1 -10 4 -37 9 -60 12 -24 2 -40 8 -37 13 7 13 58 11 89 -3z m-1237 -14
c-9 -9 -21 -13 -28 -9 -14 9 5 25 30 25 12 0 12 -3 -2 -16z m382 0 c0 -2 -14
-4 -31 -4 -16 0 -28 4 -25 9 5 8 56 3 56 -5z m64 -1 c4 -4 24 -6 45 -4 22 1
42 -3 46 -9 3 -6 3 -10 -2 -9 -40 7 -53 -2 -53 -36 0 -47 -17 -44 -30 5 -6 22
-15 38 -20 35 -6 -4 -10 1 -10 9 0 17 12 21 24 9z m-189 -25 c7 -8 7 -9 -2 -4
-6 3 -13 1 -15 -5 -3 -9 -9 -9 -25 0 -31 16 -58 14 -98 -9 -20 -11 -42 -20
-50 -20 -30 0 -14 16 38 37 55 23 131 24 152 1z m-281 4 c5 -9 -89 -54 -121
-58 -13 -1 -23 2 -23 8 0 6 7 8 15 4 8 -3 15 -1 15 4 0 6 7 10 15 10 8 0 15 5
15 11 0 5 4 7 10 4 5 -3 20 1 32 9 25 18 35 20 42 8z m1304 -41 c-1 -27 -3
-29 -30 -24 -16 3 -46 12 -66 20 l-37 14 58 -6 c47 -4 57 -2 57 10 0 8 4 15 9
15 5 0 9 -13 9 -29z m-161 13 c-3 -3 -12 -4 -19 -1 -8 3 -5 6 6 6 11 1 17 -2
13 -5z m355 -22 c-2 -7 -7 -10 -10 -8 -3 3 -10 -2 -17 -11 -11 -14 -13 -14
-17 8 -4 21 0 24 23 24 17 0 25 -4 21 -13z m-2317 0 c6 -4 16 -15 24 -24 12
-16 11 -18 -12 -18 -18 0 -26 6 -29 25 -5 26 -1 30 17 17z m883 -17 c-11 -9
-58 -14 -58 -6 0 11 30 19 48 13 7 -2 12 -6 10 -7z m522 -16 c0 -5 -4 -9 -10
-9 -5 0 -10 7 -10 16 0 8 5 12 10 9 6 -3 10 -10 10 -16z m-516 -40 c-7 -12
-44 -12 -44 0 0 5 6 11 13 14 17 6 38 -3 31 -14z m66 1 c0 -5 -4 -10 -10 -10
-5 0 -10 5 -10 10 0 6 5 10 10 10 6 0 10 -4 10 -10z m160 -30 c21 -18 47 -29
65 -30 42 0 139 -33 210 -70 113 -59 235 -142 218 -147 -12 -4 -94 37 -137 71
-17 12 -62 35 -100 50 -38 16 -78 33 -88 40 -15 8 -21 8 -27 -3 -7 -11 -16
-10 -47 10 -34 21 -51 24 -131 24 -51 -1 -93 2 -93 6 0 9 27 19 51 19 10 0 19
5 19 10 0 6 -10 10 -22 10 -13 0 -30 5 -38 11 -24 17 71 1 97 -17 26 -17 33
-18 33 -4 0 6 -6 10 -12 10 -20 1 -66 40 -48 40 9 0 31 -13 50 -30z m-1370 0
c0 -6 -12 -15 -27 -21 -16 -6 -42 -17 -60 -25 -26 -11 -33 -11 -43 1 -6 7 -20
11 -33 7 -21 -5 -21 -5 -5 11 20 20 34 22 41 5 3 -7 6 -4 6 7 1 17 9 20 61 23
36 1 60 -2 60 -8z m1070 -8 c0 -16 -107 -60 -187 -77 -18 -4 -33 -3 -33 2 0 8
67 32 92 34 7 0 36 11 63 24 54 26 65 29 65 17z m-450 -17 c20 -24 5 -28 -21
-6 -19 16 -20 20 -8 21 9 0 22 -7 29 -15z m50 -30 c7 -8 9 -15 5 -15 -4 0 -2
-7 5 -15 7 -8 15 -13 19 -11 3 2 15 -2 26 -10 10 -8 17 -14 14 -15 -28 -5 -47
-4 -43 3 3 4 -1 8 -9 8 -8 0 -18 11 -21 25 -4 14 -11 25 -16 25 -6 0 -10 5
-10 10 0 15 16 12 30 -5z m-930 -10 c7 -9 10 -18 7 -22 -8 -7 -37 15 -37 28 0
14 16 11 30 -6z m1533 -42 c-7 -2 -19 -2 -25 0 -7 3 -2 5 12 5 14 0 19 -2 13
-5z m202 -61 c-5 -5 -65 56 -65 66 0 3 16 -9 35 -28 19 -18 33 -36 30 -38z
m75 39 c7 -13 7 -22 0 -26 -5 -3 -10 1 -10 9 0 8 -8 20 -17 25 -17 10 -17 10
-1 11 10 0 22 -9 28 -19z m-735 -31 c3 -6 -1 -7 -9 -4 -18 7 -21 14 -7 14 6 0
13 -4 16 -10z m-1085 -30 c0 -5 -6 -10 -14 -10 -8 0 -18 5 -21 10 -3 6 3 10
14 10 12 0 21 -4 21 -10z m-456 -15 c-4 -8 -11 -15 -16 -15 -6 0 -5 6 2 15 7
8 14 15 16 15 2 0 1 -7 -2 -15z m2314 -29 c1 -14 -3 -26 -8 -26 -6 0 -10 9
-10 19 0 11 -3 28 -7 38 -6 15 -4 16 8 6 8 -6 15 -23 17 -37z m-2259 10 c-2
-2 -15 -9 -29 -15 -24 -11 -24 -11 -6 3 16 13 49 24 35 12z m183 -38 c21 -23
38 -46 38 -51 0 -11 -97 73 -99 86 -3 19 26 3 61 -35z m2035 -55 c-8 -7 -76
64 -77 80 0 5 19 -10 42 -32 23 -22 39 -43 35 -48z m-2272 47 c-9 -14 8 -13
23 2 7 7 12 8 12 2 0 -13 -46 -35 -54 -27 -3 3 -1 12 5 20 13 15 23 18 14 3z
m3528 -20 c3 6 4 5 3 -2 -3 -12 -23 -13 -54 -3 -7 3 -10 9 -7 15 4 6 15 4 30
-6 15 -10 25 -11 28 -4z m-2623 1 c0 -5 -10 -11 -22 -14 -22 -6 -22 -6 -4 8
23 17 26 18 26 6z m1416 -47 c2 -12 -1 -13 -12 -3 -7 6 -11 16 -8 21 7 11 17
3 20 -18z m1337 -30 c43 -48 46 -58 15 -49 -25 8 -67 53 -68 72 0 7 -7 10 -15
7 -8 -4 -15 -2 -15 4 0 13 22 21 36 13 6 -3 27 -25 47 -47z m-1698 -41 c18
-29 37 -63 40 -75 4 -13 19 -35 33 -50 21 -23 23 -28 9 -28 -9 0 -17 4 -17 8
0 4 -17 25 -37 46 -22 22 -33 41 -26 43 12 4 -27 82 -52 103 -8 7 -15 20 -15
29 1 19 12 6 65 -76z m762 60 c-8 -7 -37 9 -31 19 3 5 12 4 20 -3 8 -6 13 -14
11 -16z m-2422 7 c3 -6 -1 -7 -9 -4 -18 7 -21 14 -7 14 6 0 13 -4 16 -10z
m1995 -21 c0 -6 -4 -7 -10 -4 -5 3 -10 11 -10 16 0 6 5 7 10 4 6 -3 10 -11 10
-16z m504 -34 c18 -15 23 -25 14 -25 -13 0 -58 35 -58 45 0 11 17 3 44 -20z
m-2418 -28 c1 -20 -2 -22 -32 -19 -19 2 -34 6 -34 8 0 4 52 33 60 34 3 0 6
-10 6 -23z m1394 -39 c0 -20 4 -39 9 -42 5 -3 14 -20 20 -37 18 -53 -9 -29
-30 26 -20 53 -27 133 -9 105 5 -8 10 -32 10 -52z m1320 32 c0 -5 -4 -10 -10
-10 -5 0 -10 5 -10 10 0 6 5 10 10 10 6 0 10 -4 10 -10z m-2663 -6 c-3 -3 -12
-4 -19 -1 -8 3 -5 6 6 6 11 1 17 -2 13 -5z m120 0 c-3 -3 -12 -4 -19 -1 -8 3
-5 6 6 6 11 1 17 -2 13 -5z m1368 -24 c11 -13 14 -20 6 -20 -13 0 -41 24 -41
34 0 12 18 5 35 -14z m950 -8 c-3 -3 -11 0 -18 7 -9 10 -8 11 6 5 10 -3 15 -9
12 -12z m-2441 -53 c-16 -18 -44 -26 -44 -13 0 11 45 42 53 37 5 -3 1 -14 -9
-24z m-734 0 c-7 -11 -14 -19 -16 -16 -7 7 7 37 17 37 6 0 5 -9 -1 -21z m2394
-4 c11 -8 15 -15 9 -15 -19 0 -43 12 -43 21 0 13 12 11 34 -6z m-114 -3 c0 -5
-10 -17 -22 -28 -23 -19 -23 -19 -5 2 9 11 14 24 10 27 -3 4 -1 7 5 7 7 0 12
-4 12 -8z m-2226 -27 c-4 -8 -14 -15 -24 -15 -10 0 -20 7 -24 15 -4 11 2 15
24 15 22 0 28 -4 24 -15z m2618 -21 c-2 -16 -8 -33 -13 -38 -5 -6 -9 -19 -9
-30 0 -15 -3 -17 -11 -9 -7 7 -8 17 -3 25 10 16 11 19 13 59 1 20 5 29 14 26
7 -2 11 -16 9 -33z m-2726 -1 c-10 -10 -19 5 -10 18 6 11 8 11 12 0 2 -7 1
-15 -2 -18z m2198 5 c-4 -7 -3 -8 5 -4 13 8 41 -10 41 -26 0 -6 -6 -6 -14 1
-12 10 -13 7 -10 -16 5 -46 21 -117 29 -137 6 -14 5 -17 -3 -12 -13 8 -4 -25
10 -34 4 -3 9 -16 11 -28 2 -12 12 -29 23 -37 18 -14 18 -16 1 -29 -15 -11
-17 -22 -11 -52 5 -26 4 -35 -5 -30 -6 4 -11 18 -11 31 0 25 -46 83 -57 72
-11 -12 -43 25 -43 49 0 17 4 21 19 17 11 -3 18 -10 15 -17 -2 -6 9 -19 25
-29 l29 -17 -16 50 c-9 27 -19 50 -24 50 -4 0 -8 7 -8 16 0 10 6 14 14 11 10
-4 13 -1 10 8 -7 18 -38 29 -42 15 -2 -6 -15 5 -29 25 -30 44 -24 58 7 18 l23
-28 -7 37 c-6 33 -5 37 10 31 14 -5 16 -2 11 13 -18 60 -19 64 -8 64 7 0 9 -5
5 -12z m1267 -6 c-7 -2 -18 1 -23 6 -8 8 -4 9 13 5 13 -4 18 -8 10 -11z m-401
-42 c0 -5 -15 -4 -32 1 -18 5 -34 9 -36 9 -2 0 -1 4 3 9 6 11 65 -6 65 -19z
m-760 -5 c16 -19 0 -19 -26 0 -16 12 -16 14 -3 15 9 0 22 -7 29 -15z m105 -24
c-6 -5 -25 10 -25 20 0 5 6 4 14 -3 8 -7 12 -15 11 -17z m706 12 c13 -15 12
-15 -11 -3 -34 17 -36 20 -18 20 9 0 22 -7 29 -17z m-2959 -45 c-9 -18 -22
-36 -28 -40 -6 -4 -17 -21 -24 -37 -12 -29 -40 -50 -40 -30 0 21 85 139 100
139 5 0 1 -15 -8 -32z m549 -11 c-10 -9 -11 -8 -5 6 3 10 9 15 12 12 3 -3 0
-11 -7 -18z m-498 -19 c-2 -5 -15 -8 -29 -8 -23 0 -23 1 -6 18 12 12 20 14 28
7 7 -5 10 -13 7 -17z m434 10 c-3 -8 -6 -5 -6 6 -1 11 2 17 5 13 3 -3 4 -12 1
-19z m2578 12 c3 -5 -3 -10 -15 -10 -12 0 -18 5 -15 10 3 6 10 10 15 10 5 0
12 -4 15 -10z m-1221 -26 c-6 -24 -5 -26 16 -19 18 6 22 4 17 -8 -4 -10 4 -24
21 -37 16 -13 20 -19 10 -16 -22 7 -23 -4 -4 -29 12 -16 12 -23 0 -39 -8 -12
-10 -25 -5 -35 5 -9 12 -37 15 -64 4 -26 11 -57 16 -70 5 -12 11 -39 15 -59 4
-28 11 -38 24 -38 22 0 54 -45 56 -77 1 -22 69 -92 91 -93 10 0 47 -37 75 -75
13 -18 12 -19 -2 -8 -9 7 -19 9 -23 5 -4 -4 -6 -2 -4 4 3 11 -63 74 -78 74 -5
0 -28 17 -52 39 -40 37 -53 61 -32 61 18 0 10 25 -14 42 -15 11 -27 13 -37 7
-11 -7 -11 -9 4 -9 18 0 22 -22 18 -88 -2 -18 3 -40 10 -48 6 -8 9 -17 6 -21
-4 -3 -14 9 -24 27 -10 18 -28 42 -39 55 -12 12 -27 31 -33 43 -13 25 -33 30
-24 6 4 -12 1 -15 -13 -12 -11 2 -20 13 -22 27 -2 15 0 21 7 17 16 -10 14 -1
-15 54 -18 34 -30 47 -40 43 -10 -4 -17 2 -21 15 -2 11 -13 22 -24 25 -10 3
-19 10 -19 17 0 6 8 9 18 6 9 -3 24 -1 32 4 13 9 13 12 -4 25 -10 8 -15 19
-11 26 9 13 44 -26 45 -48 0 -7 6 -13 14 -13 8 0 17 -8 19 -17 3 -13 5 -12 6
5 1 29 25 24 29 -6 6 -38 19 -24 18 18 0 22 -4 40 -8 40 -5 0 -8 -4 -8 -10 0
-5 -7 -10 -15 -10 -8 0 -15 4 -15 9 0 5 -2 16 -5 23 -4 10 3 14 22 13 20 0 27
4 24 15 -2 8 -3 31 -2 51 2 42 -10 76 -36 104 -21 23 -25 75 -5 75 8 0 10 -8
6 -26z m714 1 c-3 -3 -13 -2 -22 1 -14 5 -15 9 -4 15 13 8 36 -6 26 -16z m572
-10 c11 -13 10 -14 -4 -9 -9 3 -16 10 -16 15 0 13 6 11 20 -6z m110 5 c0 -5
-4 -10 -9 -10 -6 0 -13 5 -16 10 -3 6 1 10 9 10 9 0 16 -4 16 -10z m-3400 -9
c0 -6 -4 -13 -10 -16 -5 -3 -10 1 -10 9 0 9 5 16 10 16 6 0 10 -4 10 -9z
m1805 -54 c16 -15 35 -27 41 -27 6 0 17 -6 23 -14 18 -21 124 -74 139 -69 7 3
12 -4 12 -16 0 -25 -8 -26 -34 -6 -22 17 -50 20 -41 5 10 -15 -25 -12 -41 4
-9 10 -10 17 -4 21 6 4 -5 17 -25 30 -73 50 -97 71 -122 105 -29 39 -28 38 52
-33z m1225 47 c0 -2 -15 -4 -32 -3 -27 0 -29 2 -13 8 18 8 45 4 45 -5z m-502
-46 c22 -29 38 -55 35 -58 -3 -3 -13 6 -22 20 -9 13 -29 39 -45 57 -15 18 -24
33 -18 33 5 0 28 -24 50 -52z m-2505 -3 c5 -35 4 -38 -7 -22 -7 9 -11 28 -8
42 6 32 8 30 15 -20z m631 -7 c-9 -18 -19 -28 -21 -21 -4 12 28 65 35 58 2 -2
-4 -18 -14 -37z m2876 33 c0 -5 -9 -7 -20 -4 -11 3 -20 7 -20 9 0 2 9 4 20 4
11 0 20 -4 20 -9z m-830 -16 c20 -24 6 -28 -15 -5 -10 11 -13 20 -8 20 6 0 16
-7 23 -15z m-2137 -9 c3 -8 0 -19 -7 -25 -10 -9 -12 -6 -8 14 5 29 8 31 15 11z
m2837 -11 c0 -1 -7 -8 -15 -15 -13 -10 -15 -9 -15 8 0 15 5 20 15 16 8 -4 15
-7 15 -9z m-2704 -32 c-10 -10 -19 5 -10 18 6 11 8 11 12 0 2 -7 1 -15 -2 -18z
m2754 5 c0 -5 -9 -4 -20 2 -11 6 -20 12 -20 14 0 2 9 2 20 -1 11 -3 20 -9 20
-15z m-1652 -54 c17 -31 32 -60 32 -65 0 -5 9 -9 20 -9 11 0 20 -5 20 -11 0
-5 -4 -7 -10 -4 -12 8 -13 3 0 -29 5 -14 8 -26 6 -26 -7 0 -79 112 -103 158
-32 63 -4 52 35 -14z m209 34 c-3 -8 -6 -5 -6 6 -1 11 2 17 5 13 3 -3 4 -12 1
-19z m1584 -3 c-1 -15 -24 -12 -29 3 -3 9 2 13 12 10 10 -1 17 -7 17 -13z
m-2741 -31 c0 -8 -4 -12 -10 -9 -5 3 -10 13 -10 21 0 8 5 12 10 9 6 -3 10 -13
10 -21z m2864 -13 c27 -14 68 -36 92 -48 50 -26 54 -31 19 -29 -14 0 -25 4
-25 8 0 11 -89 54 -126 62 -18 4 -40 16 -50 27 -18 20 -18 20 11 13 17 -4 52
-19 79 -33z m-3722 -9 c-7 -2 -9 -8 -6 -13 3 -5 -8 -24 -26 -42 -31 -31 -25
-51 8 -26 9 7 -3 -8 -28 -33 -57 -58 -70 -75 -64 -81 2 -2 -2 -10 -11 -17 -12
-10 -15 -10 -15 3 0 9 5 19 10 22 16 10 12 45 -6 45 -8 0 -13 4 -10 9 3 5 14
7 24 5 9 -2 23 0 31 5 12 8 13 12 1 26 -7 9 -9 15 -4 14 15 -4 44 13 39 22 -3
4 4 13 15 19 11 6 18 15 15 20 -8 13 17 40 30 32 5 -3 4 -7 -3 -10z m2330 -27
c6 -28 -6 -34 -16 -9 -8 22 -7 34 3 34 5 0 11 -11 13 -25z m528 -18 c0 -16
-35 -1 -38 16 -3 16 -1 17 17 5 12 -7 21 -17 21 -21z m-1140 -45 c0 -22 -17
-4 -29 30 l-11 33 20 -25 c11 -14 20 -31 20 -38z m-769 -1 c7 11 9 9 9 -6 0
-12 6 -27 13 -34 10 -11 9 -13 -3 -9 -8 3 -24 -2 -35 -11 -18 -15 -19 -15 -6
2 12 15 12 21 -6 45 -32 45 -36 59 -8 28 22 -24 29 -26 36 -15z m2824 29 c7
-12 -2 -12 -30 0 -19 8 -19 9 2 9 12 1 25 -3 28 -9z m-3199 -25 c-3 -9 -11
-13 -16 -10 -8 5 -7 11 1 21 14 18 24 11 15 -11z m-351 5 c3 -5 1 -10 -4 -10
-6 0 -11 5 -11 10 0 6 2 10 4 10 3 0 8 -4 11 -10z m3208 -3 c-2 -4 -3 -11 -3
-17 0 -5 -5 -10 -12 -10 -6 0 -8 3 -5 7 4 3 2 12 -4 19 -7 9 -6 12 8 10 10 -2
17 -6 16 -9z m-2873 -36 c0 -6 -5 -13 -11 -16 -5 -4 -14 -18 -19 -31 -6 -14
-26 -34 -45 -45 -19 -12 -35 -26 -35 -32 0 -14 -65 -58 -74 -50 -3 3 17 24 44
46 29 23 46 44 40 47 -7 4 -5 12 6 21 15 11 16 12 10 0 -6 -9 -4 -12 5 -9 8 2
22 21 32 41 15 33 47 51 47 28z m295 -29 c-3 -3 -11 0 -18 7 -9 10 -8 11 6 5
10 -3 15 -9 12 -12z m302 -4 c-3 -8 -6 -5 -6 6 -1 11 2 17 5 13 3 -3 4 -12 1
-19z m-387 -8 c0 -5 -9 -14 -20 -20 -11 -6 -20 -17 -20 -24 0 -18 -23 -27 -41
-15 -12 7 -11 9 2 9 8 0 25 14 37 30 22 30 42 39 42 20z m294 -49 c-6 -6 -24
19 -24 34 1 6 7 1 15 -9 8 -11 12 -22 9 -25z m2530 31 c3 -5 -1 -9 -9 -9 -8 0
-12 4 -9 9 3 4 7 8 9 8 2 0 6 -4 9 -8z m-3634 -17 c0 -8 -7 -15 -15 -15 -9 0
-12 6 -9 15 4 8 10 15 15 15 5 0 9 -7 9 -15z m1687 -26 c3 -10 14 -19 24 -19
12 0 16 5 13 15 -14 36 23 6 69 -57 16 -21 33 -38 39 -38 6 0 17 -8 24 -17 12
-16 12 -16 7 5 -3 13 -1 22 6 22 6 0 11 -4 11 -8 0 -8 13 -27 57 -82 12 -15
20 -30 16 -33 -3 -4 0 -14 8 -23 7 -9 18 -24 24 -34 5 -10 28 -44 50 -75 22
-32 45 -67 51 -77 6 -11 21 -28 33 -40 12 -11 19 -23 15 -27 -3 -3 -23 14 -43
38 -20 25 -73 81 -118 126 -83 82 -109 122 -57 88 27 -17 27 -17 13 5 -8 12
-21 22 -29 22 -8 0 -35 22 -58 49 -24 27 -49 48 -56 45 -13 -5 -56 39 -56 56
0 6 -8 14 -17 17 -24 9 -47 33 -62 61 -12 22 -11 23 9 12 13 -7 25 -21 27 -31z
m1639 26 c14 -11 15 -14 4 -15 -28 0 -60 12 -54 21 8 13 28 11 50 -6z m355
-12 c13 -16 12 -17 -3 -4 -10 7 -18 15 -18 17 0 8 8 3 21 -13z m-2653 0 c-10
-2 -26 -2 -35 0 -10 3 -2 5 17 5 19 0 27 -2 18 -5z m397 -13 c17 -11 39 -25
50 -32 11 -7 33 -23 49 -36 17 -14 35 -20 47 -17 12 4 19 2 19 -7 0 -14 100
-71 109 -62 3 3 -1 9 -9 14 -8 5 -12 11 -9 15 3 3 21 -10 40 -28 19 -19 47
-42 62 -52 16 -10 26 -24 23 -31 -3 -8 2 -18 12 -23 9 -5 14 -13 10 -16 -12
-12 -38 3 -47 28 -10 24 -61 65 -61 48 0 -6 8 -15 18 -20 14 -9 14 -10 1 -11
-8 0 -31 18 -49 40 -18 22 -49 45 -67 52 -18 7 -33 16 -33 20 0 4 -9 8 -19 8
-11 0 -26 6 -33 14 -8 7 -32 23 -54 35 -43 23 -114 81 -99 81 6 0 24 -9 40
-20z m501 -47 c26 -38 61 -83 78 -101 17 -18 31 -36 31 -40 0 -4 5 -7 10 -8
27 -3 29 -5 16 -13 -12 -8 -12 -12 -2 -25 7 -8 20 -14 29 -14 24 1 72 -20 72
-31 0 -5 -5 -13 -12 -17 -6 -4 -8 -3 -5 3 8 13 -35 33 -71 33 -22 1 -31 9 -53
52 -27 53 -59 83 -36 34 7 -14 16 -26 20 -26 5 0 5 -5 1 -12 -4 -6 1 -17 11
-24 26 -19 14 -27 -13 -8 -11 8 -19 20 -17 27 3 6 -15 33 -39 59 -44 48 -49
66 -14 47 18 -10 19 -9 7 12 -7 13 -25 41 -41 63 -26 36 -34 56 -24 56 2 0 26
-30 52 -67z m-1021 47 c-3 -5 -11 -10 -16 -10 -6 0 -7 5 -4 10 3 6 11 10 16
10 6 0 7 -4 4 -10z m2525 -10 c13 -11 34 -20 47 -20 12 0 23 -5 23 -11 0 -13
-48 -3 -68 14 -8 6 -20 12 -27 13 -7 1 -21 7 -32 13 -16 9 -15 10 8 11 14 0
36 -9 49 -20z m-2072 -9 c24 -5 49 -14 55 -20 8 -8 4 -9 -14 -5 -13 3 -35 7
-49 9 -14 2 -38 9 -55 14 -28 9 -28 9 -5 10 14 0 44 -4 68 -8z m1056 -17 c9
-8 16 -20 16 -25 0 -12 -38 12 -44 28 -7 18 9 16 28 -3z m977 -10 c17 -8 29
-18 26 -20 -6 -6 -77 22 -77 30 0 10 20 6 51 -10z m-3421 -20 c0 -8 -6 -14
-14 -14 -12 0 -14 10 -7 38 3 10 21 -11 21 -24z m2595 16 c3 -5 1 -10 -4 -10
-6 0 -11 5 -11 10 0 6 2 10 4 10 3 0 8 -4 11 -10z m960 0 c3 -5 1 -10 -4 -10
-6 0 -11 5 -11 10 0 6 2 10 4 10 3 0 8 -4 11 -10z m900 0 c3 -5 1 -10 -4 -10
-6 0 -11 5 -11 10 0 6 2 10 4 10 3 0 8 -4 11 -10z m-2980 -10 c3 -5 1 -10 -4
-10 -6 0 -11 5 -11 10 0 6 2 10 4 10 3 0 8 -4 11 -10z m-985 -31 c0 -6 -4 -7
-10 -4 -5 3 -10 11 -10 16 0 6 5 7 10 4 6 -3 10 -11 10 -16z m1195 1 c10 -11
15 -20 11 -20 -14 0 -46 21 -46 30 0 16 16 11 35 -10z m-1244 -27 c-12 -20
-14 -14 -5 12 4 9 9 14 11 11 3 -2 0 -13 -6 -23z m3476 7 c33 -26 23 -26 -19
0 -18 11 -27 20 -20 20 8 0 25 -9 39 -20z m-1412 0 c3 -5 1 -10 -4 -10 -6 0
-11 5 -11 10 0 6 2 10 4 10 3 0 8 -4 11 -10z m-2211 -54 c-9 -14 -20 -26 -25
-26 -10 0 -1 25 21 58 11 17 16 19 18 8 2 -8 -4 -26 -14 -40z m1858 37 c2 -10
-1 -29 -8 -42 -12 -24 -13 -23 -12 17 0 42 12 57 20 25z m-945 -15 c-3 -8 -6
-5 -6 6 -1 11 2 17 5 13 3 -3 4 -12 1 -19z m343 12 c0 -5 -4 -10 -10 -10 -5 0
-10 5 -10 10 0 6 5 10 10 10 6 0 10 -4 10 -10z m260 -12 c10 2 20 -5 23 -15 4
-10 14 -29 24 -43 17 -25 17 -25 -3 -7 -11 9 -25 17 -30 17 -12 0 -64 52 -64
64 0 5 7 2 17 -5 9 -8 24 -13 33 -11z m755 -28 c3 -6 -1 -7 -9 -4 -18 7 -21
14 -7 14 6 0 13 -4 16 -10z m1370 0 c3 -5 2 -10 -4 -10 -5 0 -13 5 -16 10 -3
6 -2 10 4 10 5 0 13 -4 16 -10z m489 -36 c0 -5 6 -15 13 -22 17 -18 17 -32 -2
-32 -17 0 -20 -21 -6 -48 22 -42 61 -124 61 -128 0 -12 -17 -1 -27 19 -34 67
-48 97 -63 140 -14 38 -14 47 -3 47 16 0 17 12 2 27 -9 9 -7 11 7 9 11 -2 19
-7 18 -12z m-4074 -41 c-11 -17 -11 -17 -6 0 3 10 7 26 7 35 1 15 2 15 6 0 2
-10 -1 -25 -7 -35z m760 33 c0 -2 -8 -10 -17 -17 -16 -13 -17 -12 -4 4 13 16
21 21 21 13z m640 -30 c0 -2 -9 -2 -20 1 -11 3 -20 9 -20 15 0 5 9 4 20 -2 11
-6 20 -12 20 -14z m-330 10 c0 -3 -4 -8 -10 -11 -5 -3 -10 -1 -10 4 0 6 5 11
10 11 6 0 10 -2 10 -4z m854 -21 c26 -39 18 -52 -9 -15 -28 38 -29 40 -16 40
5 0 16 -11 25 -25z m76 -33 c0 -13 -45 28 -48 44 -3 15 2 12 22 -10 14 -16 26
-31 26 -34z m-2444 23 c-9 -9 -16 -21 -16 -26 0 -5 -9 -9 -21 -9 -11 0 -17 5
-14 10 4 6 11 8 16 5 5 -4 9 -1 9 6 0 12 32 40 39 34 2 -2 -4 -11 -13 -20z
m2471 19 c-3 -3 -12 -4 -19 -1 -8 3 -5 6 6 6 11 1 17 -2 13 -5z m204 -50 c19
-20 20 -24 6 -24 -9 0 -17 -4 -17 -10 0 -5 -7 -7 -15 -4 -8 4 -12 10 -9 15 3
5 10 7 15 4 5 -4 9 -1 9 5 0 6 -11 15 -25 20 -14 5 -25 14 -25 19 0 16 37 0
61 -25z m88 -6 c-3 -26 1 -38 15 -38 8 0 17 -12 21 -27 3 -15 12 -31 18 -35 8
-5 6 -8 -5 -8 -11 0 -18 8 -18 19 0 19 -21 43 -36 40 -16 -2 -54 13 -54 22 0
5 7 9 16 9 11 0 14 6 9 21 -9 26 15 46 28 24 4 -8 7 -21 6 -27z m278 36 c-3
-3 -12 -4 -19 -1 -8 3 -5 6 6 6 11 1 17 -2 13 -5z m-856 -31 c13 -16 12 -17
-3 -4 -10 7 -18 15 -18 17 0 8 8 3 21 -13z m399 -5 c0 -6 -6 -5 -15 2 -8 7
-15 14 -15 16 0 2 7 1 15 -2 8 -4 15 -11 15 -16z m-255 -16 c-3 -3 -11 0 -18
7 -9 10 -8 11 6 5 10 -3 15 -9 12 -12z m295 -58 c0 -21 -6 -17 -42 28 l-33 43
38 -29 c20 -16 37 -35 37 -42z m-150 46 c0 -5 -2 -10 -4 -10 -3 0 -8 5 -11 10
-3 6 -1 10 4 10 6 0 11 -4 11 -10z m-260 -15 c16 -19 0 -19 -26 0 -16 12 -16
14 -3 15 9 0 22 -7 29 -15z m195 5 c3 -5 1 -10 -4 -10 -6 0 -11 5 -11 10 0 6
2 10 4 10 3 0 8 -4 11 -10z m-93 -63 c-1 -7 6 -22 17 -33 18 -20 41 -58 41
-68 0 -20 -22 2 -53 53 -20 32 -43 64 -52 71 -28 23 -15 32 18 11 17 -11 31
-27 29 -34z m223 9 c12 -10 15 -15 7 -16 -16 0 11 -41 62 -94 20 -20 30 -36
23 -39 -7 -2 -23 9 -37 24 -13 16 -30 29 -37 29 -7 0 -13 5 -13 11 0 5 5 7 12
3 6 -4 -3 14 -21 39 -18 26 -36 47 -41 47 -6 0 -10 9 -10 20 0 18 2 18 18 5 9
-8 26 -21 37 -29z m157 -7 c11 -26 22 -39 31 -36 10 4 12 -3 9 -23 -4 -27 22
-98 41 -111 5 -4 5 -9 -1 -13 -6 -4 -9 -13 -5 -21 7 -20 0 -19 -39 6 -21 13
-25 18 -11 14 12 -3 24 -1 28 5 3 5 2 10 -4 10 -6 0 -18 26 -27 58 -9 31 -20
62 -24 67 -4 6 -10 19 -12 30 -3 11 -9 28 -13 38 -4 9 -3 17 1 17 5 0 17 -19
26 -41z m-248 6 c3 -8 2 -15 -3 -15 -5 0 -14 7 -21 15 -10 12 -10 15 3 15 8 0
17 -7 21 -15z m176 -32 c12 -11 12 -13 -1 -13 -9 0 -21 12 -28 28 -9 22 -9 24
2 12 7 -8 19 -21 27 -27z m-106 -18 c11 -8 17 -17 15 -20 -6 -6 -69 37 -69 48
0 8 23 -4 54 -28z m-243 2 c-1 -12 -15 -9 -19 4 -3 6 1 10 8 8 6 -3 11 -8 11
-12z m-65 -44 c-4 -4 -11 -1 -16 7 -16 25 -11 35 7 17 9 -9 13 -20 9 -24z
m638 12 c15 -11 16 -15 5 -15 -8 0 -24 7 -35 15 -14 11 -15 14 -4 14 8 0 24
-6 34 -14z m196 -5 c0 -5 -6 -10 -14 -10 -8 0 -18 5 -21 10 -3 6 3 10 14 10
12 0 21 -4 21 -10z m-580 -10 c0 -5 -4 -10 -10 -10 -5 0 -10 5 -10 10 0 6 5
10 10 10 6 0 10 -4 10 -10z m-1495 -60 c-2 -33 -9 -68 -15 -78 -8 -13 -9 0 -5
52 5 63 10 86 20 86 2 0 2 -27 0 -60z m1455 -25 c9 -8 22 -15 28 -15 7 0 12
-7 12 -15 0 -18 -16 -20 -23 -2 -2 7 -34 27 -70 45 -35 18 -73 42 -83 53 -14
15 -1 11 51 -16 38 -19 76 -42 85 -50z m65 65 c3 -5 1 -10 -4 -10 -6 0 -11 5
-11 10 0 6 2 10 4 10 3 0 8 -4 11 -10z m436 -17 c26 -17 36 -29 28 -34 -7 -4
-17 -3 -23 2 -52 41 -69 58 -58 59 7 0 31 -12 53 -27z m49 17 c0 -5 -5 -10
-11 -10 -5 0 -7 5 -4 10 3 6 8 10 11 10 2 0 4 -4 4 -10z m25 1 c3 -5 2 -12 -3
-15 -5 -3 -9 1 -9 9 0 17 3 19 12 6z m82 3 c-3 -3 -12 -4 -19 -1 -8 3 -5 6 6
6 11 1 17 -2 13 -5z m-537 -30 l25 -15 -25 7 c-14 3 -29 10 -34 15 -16 14 6
10 34 -7z m-183 -79 c14 -27 12 -26 -20 10 -20 22 -36 44 -37 49 0 16 41 -28
57 -59z m558 45 c3 -6 -1 -7 -9 -4 -18 7 -21 14 -7 14 6 0 13 -4 16 -10z
m-2008 -32 c-3 -7 -5 -2 -5 12 0 14 2 19 5 13 2 -7 2 -19 0 -25z m2213 -118
c19 -20 68 -48 74 -43 4 4 4 -1 0 -11 -5 -14 -4 -17 4 -12 7 4 12 2 12 -5 0
-10 3 -10 13 0 10 10 7 17 -15 35 -16 12 -28 26 -28 31 0 19 -45 65 -67 68
-12 2 -26 7 -30 12 -5 4 -2 5 5 1 14 -8 15 -5 6 18 -3 9 -12 16 -20 16 -16 0
-18 9 -6 27 6 9 12 7 25 -7 9 -11 17 -25 17 -30 0 -6 6 -10 13 -10 8 0 22 -9
32 -20 10 -11 22 -17 28 -13 6 4 8 0 4 -10 -4 -11 16 -39 64 -88 46 -48 66
-76 60 -82 -7 -7 -6 -17 1 -31 6 -12 -6 -5 -30 18 -23 22 -39 43 -36 48 3 4
-2 5 -10 2 -9 -3 -13 -10 -10 -15 3 -5 -4 -9 -15 -9 -12 0 -21 7 -21 15 0 8
-4 15 -10 15 -5 0 -10 -4 -10 -9 0 -6 5 -13 10 -16 6 -3 10 -13 10 -21 0 -26
-19 -15 -36 21 -9 19 -19 33 -23 31 -4 -3 -8 5 -8 17 -2 23 -150 173 -160 163
-4 -3 -12 -1 -20 5 -11 10 -10 14 4 25 16 11 27 5 93 -59 41 -40 77 -74 80
-77z m1164 94 c9 -24 2 -26 -12 -4 -7 11 -8 20 -3 20 5 0 12 -7 15 -16z
m-1949 -34 c3 -5 1 -10 -4 -10 -6 0 -11 5 -11 10 0 6 2 10 4 10 3 0 8 -4 11
-10z m-2108 -35 c-13 -27 -27 -33 -27 -12 0 14 19 37 31 37 4 0 2 -11 -4 -25z
m-37 -40 c0 -2 -6 -8 -13 -14 -10 -8 -14 -7 -14 2 0 8 6 14 14 14 7 0 13 -1
13 -2z m3170 -52 c0 -2 -13 3 -30 12 -16 9 -30 22 -30 30 0 11 9 7 30 -12 17
-14 30 -28 30 -30z m-360 27 c0 -5 -7 -7 -15 -4 -8 4 -15 8 -15 10 0 2 7 4 15
4 8 0 15 -4 15 -10z m-2517 -24 c-3 -13 2 -51 11 -85 19 -75 19 -78 4 -63 -9
9 -16 8 -30 -5 -17 -15 -18 -15 -18 1 0 9 6 19 13 22 17 6 13 60 -9 137 -4 12
0 17 14 17 15 0 18 -5 15 -24z m444 -81 c3 -26 1 -45 -5 -45 -10 0 -21 69 -14
90 7 20 15 2 19 -45z m-479 -4 c-15 -5 -18 3 -11 29 l7 25 6 -25 c3 -14 2 -27
-2 -29z m96 -26 c4 -11 13 -14 31 -9 20 5 24 3 19 -10 -3 -9 -13 -16 -20 -16
-21 0 -65 31 -58 41 8 14 21 11 28 -6z m-379 -25 c-3 -5 -11 -10 -16 -10 -6 0
-7 5 -4 10 3 6 11 10 16 10 6 0 7 -4 4 -10z m3260 -48 c-3 -3 -6 -3 -7 -1 -2
2 -14 18 -28 34 l-25 30 32 -29 c18 -16 31 -32 28 -34z m-74 31 c13 -16 12
-17 -3 -4 -10 7 -18 15 -18 17 0 8 8 3 21 -13z m-3067 -20 c-4 -13 -11 -20
-20 -16 -8 3 -14 -1 -14 -8 -1 -14 -54 -79 -65 -79 -3 0 -5 4 -5 10 0 10 101
122 106 117 2 -2 1 -12 -2 -24z m3536 -8 c14 -19 14 -19 -2 -6 -10 7 -18 18
-18 24 0 6 1 8 3 6 1 -2 9 -13 17 -24z m69 -12 c0 -25 -1 -25 -8 -8 -5 11 -7
23 -4 28 8 14 13 7 12 -20z m-499 -3 c0 -5 -2 -10 -4 -10 -3 0 -8 5 -11 10 -3
6 -1 10 4 10 6 0 11 -4 11 -10z m-2940 -36 c0 -8 -4 -12 -10 -9 -5 3 -10 10
-10 16 0 5 5 9 10 9 6 0 10 -7 10 -16z m-20 -48 c0 -2 -8 -10 -17 -17 -16 -13
-17 -12 -4 4 13 16 21 21 21 13z m3454 -12 c3 -8 2 -12 -4 -9 -6 3 -10 10 -10
16 0 14 7 11 14 -7z m38 -74 c3 -17 1 -33 -4 -36 -4 -3 -8 -1 -8 4 0 5 -3 24
-7 42 -4 22 -3 31 4 27 6 -4 13 -21 15 -37z m256 2 c2 -15 1 -24 -2 -22 -3 3
-7 18 -10 34 -3 16 -2 25 1 22 4 -4 9 -19 11 -34z m-890 1 c2 -8 -5 -13 -17
-13 -12 0 -21 6 -21 16 0 18 31 15 38 -3z m52 -9 c0 -2 -7 -4 -15 -4 -8 0 -15
4 -15 10 0 5 7 7 15 4 8 -4 15 -8 15 -10z m-3213 -171 c-15 -16 -17 -16 -17
-1 0 9 6 18 13 21 20 7 22 -2 4 -20z m240 -14 c-36 -21 -89 -40 -82 -29 8 13
64 38 85 39 11 0 11 -2 -3 -10z m33 -29 c-26 -20 -40 -25 -40 -14 0 11 34 33
50 33 10 1 6 -6 -10 -19z m3523 -130 c-3 -11 -9 -20 -15 -20 -5 0 -4 9 2 20 6
11 12 20 14 20 2 0 2 -9 -1 -20z m-3813 6 c0 -3 -4 -8 -10 -11 -5 -3 -10 -1
-10 4 0 6 5 11 10 11 6 0 10 -2 10 -4z m3856 -5 c-3 -5 4 -12 17 -16 12 -5 30
-11 39 -14 12 -4 15 -10 9 -20 -7 -11 -16 -9 -50 11 -31 19 -38 27 -29 36 14
14 21 16 14 3z m-551 -211 c-3 -5 -16 -10 -28 -9 -21 0 -21 1 -2 9 28 12 37
12 30 0z m-3248 -92 c-2 -13 -4 -5 -4 17 -1 22 1 32 4 23 2 -10 2 -28 0 -40z
m3390 -154 c3 -9 0 -20 -8 -25 -21 -13 -32 -11 -25 6 4 11 -1 15 -17 15 -18 0
-19 2 -7 10 23 15 50 12 57 -6z m-127 -40 c0 -8 -6 -14 -13 -14 -7 0 -13 8
-13 19 0 11 5 17 13 14 7 -3 13 -11 13 -19z m40 2 c0 -3 -4 -8 -10 -11 -5 -3
-10 -1 -10 4 0 6 5 11 10 11 6 0 10 -2 10 -4z m-3343 -108 c-3 -8 -6 -5 -6 6
-1 11 2 17 5 13 3 -3 4 -12 1 -19z m3593 12 c0 -5 -2 -10 -4 -10 -3 0 -8 5
-11 10 -3 6 -1 10 4 10 6 0 11 -4 11 -10z m-296 -9 c-5 -4 -45 -16 -89 -26
-82 -18 -139 -48 -132 -69 2 -6 0 -19 -5 -28 -5 -12 -5 -18 2 -18 5 0 10 5 10
10 0 20 31 9 42 -15 6 -14 20 -25 30 -25 11 0 17 -4 14 -8 -2 -4 -29 -9 -59
-10 -69 -3 -80 9 -71 76 8 64 31 85 109 105 66 16 164 22 149 8z m53 3 c-3 -3
-12 -4 -19 -1 -8 3 -5 6 6 6 11 1 17 -2 13 -5z m-3373 -85 c4 -18 1 -29 -7
-32 -9 -3 -13 2 -11 16 1 12 3 28 3 36 1 19 7 11 15 -20z m3240 -81 c-5 -9 -2
-8 9 1 15 12 19 12 32 -5 9 -12 10 -22 4 -29 -7 -6 -13 -5 -18 4 -5 8 -16 11
-25 8 -16 -6 -23 13 -9 26 11 11 15 8 7 -5z m576 -35 c29 -17 60 -78 65 -128
2 -29 0 -35 -17 -35 -11 0 -32 -12 -46 -27 -15 -16 -35 -29 -44 -29 -10 -1
-29 -5 -43 -8 -29 -7 -31 3 -11 43 25 47 31 126 12 152 -9 13 -16 32 -16 42 0
15 5 17 38 11 20 -4 48 -13 62 -21z m-642 -39 c2 -1 1 -12 -3 -23 -5 -16 -12
-20 -32 -16 -14 2 -29 2 -33 0 -3 -2 -1 -37 6 -77 17 -92 17 -115 4 -102 -6 6
-15 37 -21 70 -28 164 -28 167 33 158 24 -4 45 -8 46 -10z m102 -3 c0 -16 -44
-21 -60 -6 -13 13 -10 15 23 15 20 0 37 -4 37 -9z m-296 -137 c-14 -48 -16
-49 -25 -20 -4 16 -6 33 -3 37 8 13 33 -2 28 -17z m-94 -138 c0 -11 -19 -15
-25 -6 -3 5 1 10 9 10 9 0 16 -2 16 -4z m700 -166 c0 -5 -5 -10 -11 -10 -5 0
-7 5 -4 10 3 6 8 10 11 10 2 0 4 -4 4 -10z m-177 -302 c-2 -5 -10 -8 -18 -8
-7 0 -15 -10 -17 -22 -5 -39 -32 -27 -34 14 -2 29 2 41 18 52 19 13 22 13 38
-7 10 -12 16 -25 13 -29z m107 -9 c0 -5 -4 -9 -10 -9 -5 0 -10 7 -10 16 0 8 5
12 10 9 6 -3 10 -10 10 -16z m-22 -152 c-2 -38 9 -60 27 -53 13 5 32 -60 21
-72 -3 -3 -6 0 -6 6 0 7 -7 12 -16 12 -8 0 -13 -4 -9 -9 7 -12 -40 -83 -49
-74 -3 4 -6 21 -6 39 0 35 -15 46 -50 37 -17 -4 -21 -2 -18 8 3 8 13 14 24 14
14 0 20 9 24 35 3 22 10 35 20 35 8 0 15 9 16 20 2 31 3 35 14 35 6 0 10 -15
8 -33z m-58 13 c0 -5 -4 -10 -10 -10 -5 0 -10 5 -10 10 0 6 5 10 10 10 6 0 10
-4 10 -10z m-94 -415 c-7 -18 -26 -20 -26 -2 0 18 24 41 28 27 2 -6 1 -17 -2
-25z m-1691 -44 c3 -5 1 -12 -5 -16 -5 -3 -10 1 -10 9 0 18 6 21 15 7z m115
-91 c0 -5 -5 -10 -11 -10 -5 0 -7 5 -4 10 3 6 8 10 11 10 2 0 4 -4 4 -10z
m2040 -20 c0 -5 -2 -10 -4 -10 -3 0 -8 5 -11 10 -3 6 -1 10 4 10 6 0 11 -4 11
-10z m-3446 -195 c8 -8 19 -15 24 -15 6 0 6 -10 -1 -25 -7 -14 -21 -25 -32
-25 -27 0 -42 -11 -46 -34 -8 -40 -24 -25 -24 21 0 70 43 113 79 78z m153 -71
c-3 -4 -2 -15 4 -26 8 -14 5 -25 -10 -45 -26 -32 -26 -39 -1 -46 27 -7 25 -24
-2 -23 -18 1 -24 -5 -26 -27 -3 -22 -7 -27 -23 -22 -19 6 -23 -8 -22 -87 0
-10 -4 -19 -9 -19 -4 -1 -12 -3 -18 -4 -5 -1 -13 -3 -17 -4 -5 -1 -1 -6 7 -11
13 -8 13 -10 1 -10 -8 0 -25 -9 -37 -21 l-21 -20 -6 20 c-3 12 -1 21 4 21 5 0
9 7 9 16 0 13 -3 14 -15 4 -16 -13 -35 -6 -35 15 0 8 6 12 14 9 19 -7 33 36
15 47 -10 6 -9 9 6 14 39 12 50 23 64 58 14 38 9 73 -10 61 -8 -5 -8 -8 0 -14
9 -5 8 -14 -3 -34 -9 -18 -16 -23 -21 -16 -4 7 -2 17 4 23 17 17 13 27 -6 20
-12 -4 -11 0 5 11 12 10 22 24 22 33 0 18 15 8 15 -10 1 -7 6 -11 13 -9 7 1
12 -2 12 -8 0 -5 8 -10 17 -10 13 0 14 3 5 12 -7 7 -12 20 -12 30 0 9 -8 21
-17 26 -14 8 -9 13 28 31 42 19 79 28 66 15z m-127 -34 c0 -5 -6 -10 -12 -11
-7 0 -22 -2 -33 -4 -20 -4 -20 -4 -1 11 23 16 46 18 46 4z m1213 -65 c4 -8 1
-17 -5 -21 -7 -4 -8 -3 -4 4 4 7 2 12 -4 12 -6 0 -8 5 -5 10 8 14 12 13 18 -5z
m231 -56 c4 6 13 11 19 10 8 0 7 -3 -2 -6 -11 -5 -11 -7 0 -14 12 -7 11 -9 -1
-9 -12 0 -13 -2 -1 -9 9 -6 3 -8 -18 -6 -18 1 -40 9 -49 18 -14 14 -14 20 -2
42 l14 26 16 -32 c11 -20 20 -28 24 -20z m-100 26 c-4 -8 -10 -15 -14 -15 -5
0 -16 -3 -26 -7 -16 -6 -15 -4 2 14 22 25 46 30 38 8z m2333 -30 c0 -11 -4
-12 -14 -4 -7 6 -13 13 -13 15 0 2 6 4 13 4 8 0 14 -7 14 -15z m-2276 -47 c3
-4 27 -10 55 -14 27 -3 54 -12 61 -21 9 -12 16 -13 25 -5 14 11 86 -8 97 -27
4 -6 12 -6 21 -1 8 5 28 3 50 -6 21 -8 41 -14 46 -13 5 1 23 -1 39 -5 81 -19
105 -28 105 -38 0 -6 9 -3 21 8 20 18 22 18 33 1 7 -9 27 -20 44 -23 22 -5 29
-11 25 -23 -4 -13 -2 -12 11 3 14 17 16 17 31 2 9 -9 22 -16 28 -16 16 0 37
-69 37 -123 l0 -42 -40 -3 c-98 -5 -110 -7 -110 -16 0 -5 -8 -2 -18 7 -10 10
-28 17 -40 17 -11 0 -32 4 -47 10 -14 5 -45 12 -68 14 -94 10 -177 28 -177 40
0 26 -38 49 -71 42 -34 -6 -113 29 -103 46 3 5 0 17 -8 26 -8 9 -15 33 -17 52
-2 19 -11 43 -21 52 -18 17 -19 16 -22 -10 -3 -23 -7 -27 -32 -25 -16 1 -30 4
-33 6 -9 9 -10 83 -1 94 10 13 69 7 79 -9z m-1494 -10 c-3 -8 -6 -5 -6 6 -1
11 2 17 5 13 3 -3 4 -12 1 -19z m345 -15 c-3 -16 -7 -22 -10 -15 -4 13 4 42
11 42 2 0 2 -12 -1 -27z m1928 -13 c0 -5 -7 -10 -15 -10 -8 0 -18 0 -22 -1 -4
0 -9 4 -11 10 -2 6 8 11 22 11 14 0 26 -4 26 -10z m-107 -20 c-19 -22 -29 -19
-20 5 4 8 13 15 22 15 13 0 12 -3 -2 -20z m-1986 -42 c-18 -11 -29 2 -16 18
10 12 14 12 20 2 4 -7 3 -16 -4 -20z m117 -18 c-5 -5 -20 -7 -32 -3 -21 5 -22
7 -6 24 15 16 18 17 32 3 9 -9 11 -19 6 -24z m956 -30 c22 -19 52 -45 66 -57
14 -13 29 -23 34 -23 6 0 10 -5 10 -11 0 -6 6 -9 13 -6 6 2 22 -7 35 -20 12
-13 22 -21 22 -18 0 3 12 -6 27 -20 15 -14 33 -25 39 -25 6 0 17 -7 24 -15 7
-8 22 -15 34 -15 12 0 27 -9 34 -20 7 -11 19 -20 27 -20 8 0 15 -5 15 -11 0
-6 9 -8 20 -4 13 4 30 -1 46 -14 15 -12 34 -21 43 -21 10 0 27 -14 40 -30 12
-17 26 -28 32 -25 5 4 12 0 15 -8 3 -8 31 -20 62 -27 31 -7 61 -17 67 -22 5
-4 19 -8 32 -8 13 0 23 -5 23 -11 0 -5 8 -9 18 -7 11 2 27 -4 37 -12 14 -11
19 -12 22 -3 3 9 17 11 44 7 23 -4 39 -3 39 3 0 5 14 10 30 10 17 0 30 -4 30
-9 0 -4 7 -8 15 -8 8 0 15 5 15 10 0 19 39 10 45 -10 8 -24 28 -26 49 -5 8 9
17 11 21 6 3 -6 12 -8 20 -4 9 3 15 -1 15 -10 0 -10 -16 -17 -51 -21 -51 -7
-85 -28 -75 -45 3 -5 -3 -11 -14 -14 -11 -3 -23 -1 -26 4 -3 5 0 9 7 9 7 0 9
3 6 6 -8 8 -37 -14 -37 -27 0 -5 6 -9 14 -9 19 0 29 -17 22 -35 -4 -11 -14 -9
-51 10 -32 17 -54 23 -75 18 -17 -3 -30 -1 -30 4 0 5 -27 10 -60 11 -33 1 -60
-1 -60 -6 0 -11 -53 -40 -66 -35 -14 5 -28 -43 -18 -59 4 -6 1 -9 -7 -6 -8 3
-17 20 -20 39 -4 19 -7 29 -8 22 0 -7 -14 -28 -31 -46 -39 -45 -41 -79 -2 -75
23 3 27 0 25 -19 -2 -15 3 -23 12 -23 8 0 15 5 15 12 0 7 6 6 18 -4 9 -9 23
-13 30 -11 6 3 12 -2 12 -11 0 -9 -4 -16 -10 -16 -5 0 -10 -6 -10 -12 -1 -20
-36 -58 -54 -58 -9 0 -16 -6 -16 -14 0 -8 -10 -22 -22 -30 -17 -12 -19 -16 -6
-16 9 0 18 -7 22 -15 3 -8 14 -15 25 -15 26 0 32 -12 25 -48 -7 -33 -37 -55
-33 -24 5 56 -16 57 -31 1 -8 -30 -15 -39 -26 -35 -9 3 -19 6 -24 6 -4 0 -10
9 -13 20 -6 24 -20 25 -41 4 -12 -12 -16 -12 -16 -2 -1 10 -4 9 -13 -2 -14
-17 -55 -20 -65 -4 -4 6 -23 11 -42 10 -36 -1 -36 -1 -22 -50 4 -15 2 -18 -13
-13 -9 4 -24 2 -32 -4 -20 -17 -26 -6 -12 25 7 14 10 28 7 31 -9 10 -39 -7
-35 -19 3 -7 -1 -20 -9 -31 -8 -10 -14 -27 -14 -36 0 -16 -27 -32 -56 -33 -6
-1 -18 -9 -28 -18 -21 -22 -36 -23 -36 -4 0 8 -3 21 -6 29 -3 9 3 16 15 20 12
3 21 1 21 -3 0 -5 -8 -11 -17 -13 -13 -4 -12 -5 5 -6 15 -1 26 7 31 22 9 23 5
41 -8 33 -4 -3 -4 20 -1 50 3 30 3 54 -1 54 -4 0 -20 -7 -35 -15 -26 -13 -29
-13 -32 1 -2 9 -10 13 -19 10 -12 -5 -14 -1 -9 16 3 13 6 29 6 36 0 6 7 12 15
12 8 0 15 5 15 11 0 5 5 7 10 4 6 -4 10 7 10 24 0 28 -8 36 -32 32 -5 0 -8 4
-8 9 0 6 7 10 15 10 8 0 15 5 15 10 0 12 -2 12 -36 0 -18 -7 -30 -7 -39 0 -13
11 -41 -11 -28 -23 3 -4 1 -7 -5 -7 -7 0 -12 7 -12 15 0 8 4 15 10 15 5 0 6 7
3 17 -4 10 -2 14 4 10 6 -4 14 4 17 19 8 32 -3 114 -15 114 -5 0 -9 -4 -9 -10
0 -5 -6 -7 -14 -4 -8 3 -17 1 -21 -5 -3 -6 -14 -11 -23 -11 -14 0 -14 2 -3 9
7 5 15 25 16 46 2 34 0 36 -23 30 -23 -6 -24 -4 -18 22 6 23 5 26 -5 16 -19
-19 -31 -16 -24 7 4 12 2 20 -5 20 -8 0 -9 7 -5 18 4 9 9 45 10 80 2 35 6 66
8 69 3 3 2 15 -3 28 -5 13 -6 26 -2 30 3 3 0 10 -8 15 -12 8 -12 10 4 10 16 0
18 5 12 40 -5 31 -3 42 9 46 12 5 14 16 9 54 -5 38 -3 48 10 53 9 4 16 18 16
32 0 15 -4 24 -8 21 -5 -3 -4 17 2 43 8 41 13 48 32 47 13 -1 41 -17 64 -36z
m1468 15 c0 -14 -5 -28 -11 -32 -6 -3 -7 -1 -3 5 4 7 2 12 -4 12 -8 0 -8 6 0
20 14 26 18 25 18 -5z m-101 3 c14 -18 4 -88 -13 -95 -8 -3 -14 -11 -14 -17 0
-7 -16 -18 -36 -24 -30 -9 -35 -8 -30 4 3 8 1 14 -5 14 -6 0 -8 4 -4 9 3 6 8
29 11 53 6 46 25 68 60 68 12 0 26 -6 31 -12z m-2127 -7 c0 -5 -7 -14 -15 -21
-16 -14 -18 -10 -9 14 6 17 24 22 24 7z m2953 -6 c-3 -9 -8 -14 -10 -11 -3 3
-2 9 2 15 9 16 15 13 8 -4z m-2893 -21 c0 -8 -5 -12 -10 -9 -6 4 -8 11 -5 16
9 14 15 11 15 -7z m1920 -51 c0 -102 -18 -118 -175 -153 -5 -1 -20 -2 -32 -1
-21 1 -23 6 -22 54 2 99 8 111 61 122 25 5 50 13 54 18 4 4 22 7 40 7 18 0 36
5 39 10 3 6 13 10 21 10 11 0 14 -15 14 -67z m-240 38 c0 -6 -4 -13 -10 -16
-5 -3 -10 1 -10 9 0 9 5 16 10 16 6 0 10 -4 10 -9z m-2091 -15 c7 -8 8 -22 3
-36 -9 -25 -16 -20 -26 23 -7 29 4 36 23 13z m51 -7 c0 -6 -4 -7 -10 -4 -5 3
-10 11 -10 16 0 6 5 7 10 4 6 -3 10 -11 10 -16z m57 -14 c0 -8 -4 -15 -9 -15
-4 0 -8 7 -8 15 0 8 4 15 8 15 5 0 9 -7 9 -15z m-157 -15 c0 -5 -4 -10 -10
-10 -5 0 -10 5 -10 10 0 6 5 10 10 10 6 0 10 -4 10 -10z m-60 -50 c0 -5 -5
-10 -11 -10 -5 0 -7 5 -4 10 3 6 8 10 11 10 2 0 4 -4 4 -10z m725 -110 c3 -5
1 -10 -4 -10 -6 0 -11 5 -11 10 0 6 2 10 4 10 3 0 8 -4 11 -10z m-194 -12 c3
-29 -3 -63 -11 -66 -5 -2 -6 -11 -3 -20 4 -12 3 -14 -5 -7 -8 8 -9 21 -1 48 5
20 7 42 4 47 -3 6 -1 10 4 10 6 0 11 -6 12 -12z m1869 2 c0 -5 -2 -10 -4 -10
-3 0 -8 5 -11 10 -3 6 -1 10 4 10 6 0 11 -4 11 -10z m407 4 c-3 -3 -12 -4 -19
-1 -8 3 -5 6 6 6 11 1 17 -2 13 -5z m-2172 -93 c3 -5 1 -12 -5 -16 -5 -3 -10
1 -10 9 0 18 6 21 15 7z m-365 -47 c0 -8 -5 -12 -10 -9 -6 4 -8 11 -5 16 9 14
15 11 15 -7z m548 4 c-3 -7 -19 -14 -36 -16 -20 -2 -32 -9 -32 -18 0 -20 -22
-42 -37 -37 -8 3 -9 12 -1 34 8 23 16 29 41 30 18 1 35 1 40 0 4 0 7 4 7 9 0
6 5 10 11 10 6 0 9 -6 7 -12z m-268 -18 c0 -5 -4 -10 -10 -10 -5 0 -10 5 -10
10 0 6 5 10 10 10 6 0 10 -4 10 -10z m1870 -40 c0 -11 -2 -20 -4 -20 -2 0 -6
9 -9 20 -3 11 -1 20 4 20 5 0 9 -9 9 -20z m-1624 -7 c-3 -21 -26 -30 -26 -10
0 7 3 17 7 20 12 12 21 7 19 -10z m2024 -59 c0 -14 4 -23 10 -19 12 8 -9 -44
-27 -66 -7 -8 -13 -21 -13 -27 0 -7 -4 -12 -10 -12 -5 0 -10 11 -10 24 0 14
-4 28 -10 31 -18 11 -10 26 19 36 24 8 28 15 25 40 -2 18 0 28 6 24 6 -3 10
-17 10 -31z m-2519 -3 c-7 -12 -17 -18 -26 -15 -12 5 -10 10 8 24 26 22 32 19
18 -9z m2549 19 c0 -5 -5 -10 -11 -10 -5 0 -7 5 -4 10 3 6 8 10 11 10 2 0 4
-4 4 -10z m26 -37 c-11 -11 -19 6 -11 24 8 17 8 17 12 0 3 -10 2 -21 -1 -24z
m554 17 c0 -5 -4 -10 -10 -10 -5 0 -10 5 -10 10 0 6 5 10 10 10 6 0 10 -4 10
-10z m-2625 -50 c-10 -11 -23 -20 -29 -20 -6 0 1 11 14 24 30 28 41 25 15 -4z
m1615 15 c0 -8 -2 -15 -4 -15 -2 0 -6 7 -10 15 -3 8 -1 15 4 15 6 0 10 -7 10
-15z m980 11 c0 -3 -4 -8 -10 -11 -5 -3 -10 -1 -10 4 0 6 5 11 10 11 6 0 10
-2 10 -4z m-3304 -65 c-8 -13 -36 -15 -36 -3 0 4 5 13 12 20 14 14 34 0 24
-17z m169 -1 c-3 -5 -12 -10 -18 -10 -7 0 -6 4 3 10 19 12 23 12 15 0z m475
-5 c0 -8 -9 -15 -20 -15 -11 0 -20 7 -20 15 0 8 9 15 20 15 11 0 20 -7 20 -15z
m-370 -5 c0 -5 -10 -15 -22 -21 -23 -12 -23 -12 -4 10 21 23 26 26 26 11z
m700 -10 c0 -13 -7 -20 -20 -20 -19 0 -27 20 -13 33 13 14 33 6 33 -13z m-590
-29 c-13 -25 -27 -34 -34 -22 -7 10 20 41 35 41 6 0 6 -7 -1 -19z m2245 -1
c-3 -5 -10 -10 -16 -10 -5 0 -9 5 -9 10 0 6 7 10 16 10 8 0 12 -4 9 -10z
m-2627 -13 c-11 -9 -14 -18 -7 -28 14 -22 11 -42 -6 -35 -8 3 -15 0 -15 -6 0
-6 -3 -9 -6 -6 -3 4 -1 15 4 25 7 12 7 25 2 34 -7 10 -3 16 13 21 32 9 34 9
15 -5z m312 4 c0 -12 -20 -25 -27 -18 -7 7 6 27 18 27 5 0 9 -4 9 -9z m30 -37
c0 -1 -3 -9 -6 -18 -8 -22 -24 -20 -24 2 0 10 7 19 15 19 8 0 15 -1 15 -3z
m750 -47 c0 -27 -12 -47 -27 -47 -12 0 -13 -3 -4 -14 9 -10 8 -16 -4 -26 -13
-11 -14 -7 -10 33 2 25 7 57 11 71 5 22 8 23 20 11 8 -7 14 -20 14 -28z m-55
4 c-3 -6 -11 -11 -17 -11 -6 0 -6 6 2 15 14 17 26 13 15 -4z m-995 -5 c0 -3
-4 -8 -10 -11 -5 -3 -10 -1 -10 4 0 6 5 11 10 11 6 0 10 -2 10 -4z m743 -30
c-5 -10 -13 -12 -23 -6 -11 7 -12 11 0 25 16 20 36 4 23 -19z m-82 1 c-10 -9
-11 -8 -5 6 3 10 9 15 12 12 3 -3 0 -11 -7 -18z m1199 -8 c0 -5 -7 -9 -15 -9
-15 0 -20 12 -9 23 8 8 24 -1 24 -14z m-45 -9 c-3 -5 1 -10 9 -10 17 0 20 -9
10 -34 -3 -9 -10 -14 -15 -11 -4 3 -6 12 -2 20 3 11 1 13 -10 9 -12 -4 -14 -1
-10 15 3 12 10 21 15 21 5 0 6 -4 3 -10z m-1135 -24 c0 -3 -4 -8 -10 -11 -5
-3 -10 -1 -10 4 0 6 5 11 10 11 6 0 10 -2 10 -4z m-655 -36 c-10 -11 -21 -18
-23 -15 -3 3 3 12 14 20 27 20 30 18 9 -5z m742 14 c-3 -3 -12 -4 -19 -1 -8 3
-5 6 6 6 11 1 17 -2 13 -5z m-261 -29 c-1 -8 -10 -22 -19 -33 -19 -21 -22 -42
-7 -42 6 0 10 4 10 9 0 13 34 8 43 -7 10 -15 -18 -41 -45 -42 -9 0 -20 -4 -23
-10 -3 -5 -16 -15 -28 -22 -20 -10 -21 -10 -8 5 15 19 18 17 -43 20 -31 2 -50
27 -21 27 9 0 19 9 22 19 3 11 13 21 24 24 10 3 17 1 13 -4 -8 -14 4 -11 25 7
11 10 17 22 15 29 -4 9 11 21 43 34 1 1 0 -6 -1 -14z m44 1 c0 -3 -4 -8 -10
-11 -5 -3 -10 -1 -10 4 0 6 5 11 10 11 6 0 10 -2 10 -4z m1828 -27 c-3 -8 -7
-3 -11 10 -4 17 -3 21 5 13 5 -5 8 -16 6 -23z m-2310 4 c15 -29 4 -44 -18 -26
-10 9 -16 22 -13 29 7 19 21 17 31 -3z m745 -10 c-6 -15 -19 -17 -27 -4 -7 11
0 18 18 18 8 0 12 -6 9 -14z m-643 -79 c35 -18 36 -20 14 -28 -8 -3 -12 -2 -9
4 8 12 -5 13 -24 1 -11 -7 -6 -17 22 -45 20 -20 39 -31 42 -26 11 18 35 10 35
-11 0 -11 -4 -18 -9 -15 -12 8 -41 -4 -41 -16 0 -5 6 -16 14 -23 12 -12 15
-12 20 0 3 8 15 15 27 15 14 0 19 -5 16 -14 -4 -9 3 -16 17 -20 13 -3 26 -15
29 -26 3 -13 11 -18 26 -15 22 4 29 -9 11 -20 -18 -11 -11 -21 28 -41 43 -22
52 -32 45 -51 -3 -9 0 -14 8 -13 28 4 59 -13 59 -31 0 -11 5 -19 10 -19 6 0
10 -6 10 -13 0 -7 14 -18 30 -24 17 -6 30 -17 30 -25 0 -10 -3 -9 -10 2 -5 8
-10 12 -10 7 0 -13 -57 21 -63 38 -4 8 -11 15 -17 15 -7 0 -8 -5 -3 -12 4 -7
6 -20 5 -30 -2 -11 11 -21 48 -33 27 -9 55 -25 60 -36 13 -23 10 -23 -26 -5
-15 8 -32 12 -38 9 -5 -4 6 -13 25 -21 81 -34 196 -95 215 -115 5 -4 2 -13 -6
-18 -12 -9 -11 -10 6 -6 11 2 29 -2 39 -9 16 -12 16 -14 1 -29 -21 -22 -20
-28 3 -20 25 8 61 -14 61 -37 0 -11 8 -18 20 -18 13 0 20 -7 20 -20 0 -16 7
-20 33 -21 32 0 32 0 7 -12 -14 -6 -29 -17 -33 -24 -4 -7 -16 -13 -25 -13 -15
0 -15 2 -2 10 13 8 12 10 -2 10 -10 0 -18 -6 -18 -12 -1 -8 -6 -5 -15 6 -7 10
-18 15 -24 11 -6 -3 -11 -2 -11 4 0 6 -11 13 -25 17 -14 3 -25 11 -25 17 0 6
-3 7 -7 4 -3 -4 -17 3 -30 15 -13 12 -23 17 -23 11 0 -6 3 -13 8 -16 4 -2 0
-2 -8 1 -8 2 -22 5 -31 6 -9 1 -24 10 -33 19 -10 9 -35 20 -57 23 -21 4 -43
12 -49 19 -6 7 -19 11 -29 8 -10 -2 -24 1 -32 9 -22 21 -69 49 -69 41 0 -3
-12 4 -27 18 -14 13 -23 18 -19 12 14 -25 -11 -12 -53 27 -23 22 -49 40 -57
40 -8 0 -14 5 -14 10 0 6 -6 10 -14 10 -13 0 -121 114 -140 148 -5 10 -17 24
-26 32 -9 8 -29 39 -44 69 -22 44 -26 62 -20 98 6 40 24 71 24 41 0 -10 3 -9
10 2 5 9 5 19 -1 26 -7 8 -6 14 1 19 5 3 7 17 4 30 -4 17 0 26 14 34 11 6 22
8 24 5 3 -3 8 4 11 16 3 11 2 22 -3 25 -4 3 -10 -4 -13 -15 -7 -28 -37 -14
-37 17 0 25 1 25 55 18 30 -3 68 -13 85 -21z m1620 4 c0 -12 -1 -19 -3 -17 -1
2 -9 12 -16 22 -12 14 -11 17 3 17 10 0 16 -8 16 -22z m-1300 -37 c0 -13 -29
-35 -37 -28 -7 8 15 37 28 37 5 0 9 -4 9 -9z m-533 -33 c-3 -8 -6 -5 -6 6 -1
11 2 17 5 13 3 -3 4 -12 1 -19z m1633 -18 c0 -5 -4 -10 -9 -10 -6 0 -13 5 -16
10 -3 6 1 10 9 10 9 0 16 -4 16 -10z m-1595 -50 c-4 -11 -13 -20 -21 -20 -19
0 -18 19 1 26 10 4 14 14 10 28 -5 19 -5 19 5 3 6 -9 8 -26 5 -37z m875 40 c0
-5 -4 -10 -10 -10 -5 0 -10 5 -10 10 0 6 5 10 10 10 6 0 10 -4 10 -10z m182
-25 c-2 -14 -10 -25 -18 -25 -7 0 -19 -8 -26 -18 -12 -17 -78 -56 -78 -46 0 9
45 49 53 46 4 -1 21 14 38 33 17 19 32 35 34 35 1 0 0 -11 -3 -25z m93 -24
c-2 -9 -4 -19 -4 -22 -1 -3 -14 -6 -31 -6 -37 0 -39 19 -3 47 28 22 44 14 38
-19z m1790 -39 c-21 -5 -18 -20 5 -27 22 -7 27 -25 8 -25 -9 0 -9 -3 -1 -11 8
-8 9 -19 1 -38 -5 -14 -11 -63 -13 -109 -3 -78 -12 -113 -22 -84 -5 12 -33 18
-33 6 0 -3 7 -12 15 -20 24 -24 18 -32 -31 -40 -52 -8 -60 -2 -69 47 -6 31 -3
36 18 46 19 9 29 8 46 -3 25 -18 25 -17 5 31 -13 33 -13 38 0 48 20 16 36 61
27 76 -6 10 -12 9 -25 -4 -28 -28 -18 -2 14 35 16 19 30 44 30 56 0 27 21 48
32 31 4 -7 2 -13 -7 -15z m-1777 -66 c-2 -10 -7 -13 -17 -7 -8 6 -11 16 -7 27
8 21 30 4 24 -20z m-495 17 c-7 -2 -19 -2 -25 0 -7 3 -2 5 12 5 14 0 19 -2 13
-5z m759 -26 c9 -4 10 -8 2 -14 -16 -12 -34 -49 -27 -57 10 -10 25 -7 18 4 -3
6 1 7 9 4 25 -10 20 -51 -6 -60 -13 -3 -31 -15 -41 -25 -15 -16 -16 -19 -2
-19 9 0 18 7 22 15 3 9 15 15 27 13 16 -2 22 3 24 22 5 46 12 70 22 70 15 0
22 -38 12 -74 -6 -19 -6 -36 -2 -38 5 -2 0 -30 -11 -63 -11 -33 -17 -65 -15
-72 3 -7 -1 -13 -9 -13 -7 0 -16 8 -19 18 -4 14 -4 13 -3 -3 1 -29 -13 -66
-23 -60 -5 3 -4 16 2 30 6 14 8 28 5 31 -9 9 -34 -19 -30 -33 2 -6 -1 -14 -6
-18 -6 -3 -11 -15 -11 -26 0 -10 -4 -19 -10 -19 -5 0 -10 11 -10 25 0 14 5 25
10 25 6 0 10 5 10 12 0 6 12 35 27 64 26 51 25 88 -1 52 -15 -21 -36 -6 -37
27 0 11 -3 15 -5 8 -3 -7 -11 -10 -18 -7 -8 3 -16 -2 -20 -11 -3 -10 -13 -15
-20 -12 -8 3 -17 -1 -20 -9 -9 -24 -36 -16 -36 10 0 25 15 43 23 29 2 -5 2 -2
0 5 -1 8 3 19 10 27 6 7 20 22 30 34 20 25 41 18 31 -11 -4 -15 -2 -19 12 -16
11 2 19 14 21 33 2 17 9 40 15 53 9 17 9 28 1 41 -16 25 4 46 23 26 8 -7 19
-16 26 -18z m-1028 2 c-3 -5 -10 -7 -15 -3 -5 3 -7 10 -3 15 3 5 10 7 15 3 5
-3 7 -10 3 -15z m896 5 c0 -9 -28 -34 -38 -34 -5 0 -21 -10 -36 -21 -19 -15
-31 -18 -38 -11 -12 12 28 57 58 65 28 7 54 8 54 1z m-610 -40 c0 -8 -4 -12
-10 -9 -5 3 -10 10 -10 16 0 5 5 9 10 9 6 0 10 -7 10 -16z m24 -32 c3 -5 -1
-9 -9 -9 -8 0 -12 4 -9 9 3 4 7 8 9 8 2 0 6 -4 9 -8z m452 -10 c-7 -12 -56
-22 -56 -11 0 8 52 29 59 23 1 -1 0 -7 -3 -12z m104 -2 c0 -5 -5 -10 -11 -10
-5 0 -7 5 -4 10 3 6 8 10 11 10 2 0 4 -4 4 -10z m-606 -9 c3 -5 -4 -11 -15
-14 -12 -3 -18 -10 -14 -16 10 -16 -1 -13 -15 5 -11 12 -11 15 1 12 8 -2 13 3
12 10 -3 14 23 17 31 3z m574 -3 c19 -19 14 -34 -15 -47 -18 -8 -23 -15 -15
-20 9 -5 3 -15 -18 -34 -16 -15 -30 -24 -30 -21 0 4 -7 1 -15 -6 -22 -18 -24
-10 -9 25 7 17 13 25 14 18 0 -8 6 -8 24 0 15 8 21 17 18 30 -5 18 15 67 28
67 3 0 11 -5 18 -12z m-121 -28 c35 0 -20 -65 -59 -69 -15 -2 -8 27 7 33 8 3
15 14 15 24 0 22 13 38 18 23 2 -6 10 -11 19 -11z m-439 -79 c16 -16 28 -32
25 -35 -3 -3 -10 1 -17 7 -55 60 -60 77 -8 28z m869 14 c-4 -8 -3 -17 2 -19
10 -6 2 -64 -10 -72 -21 -12 -30 8 -14 32 9 14 15 30 14 37 -2 20 1 37 7 37 3
0 4 -7 1 -15z m-817 -20 c0 -12 -29 -3 -34 10 -4 13 -2 14 14 5 11 -6 20 -13
20 -15z m600 -49 c0 -19 -77 -89 -84 -77 -4 5 2 14 12 20 10 5 27 25 37 45 18
33 35 39 35 12z m1459 -36 c1 -12 -2 -11 -15 2 -11 11 -14 23 -9 35 7 17 8 17
15 -2 5 -11 9 -27 9 -35z m-2004 30 c-3 -5 -15 -10 -26 -10 -10 0 -19 5 -19
10 0 6 12 10 26 10 14 0 23 -4 19 -10z m1495 0 c0 -5 -5 -10 -11 -10 -5 0 -7
5 -4 10 3 6 8 10 11 10 2 0 4 -4 4 -10z m-1166 -8 c3 -5 -1 -9 -9 -9 -8 0 -12
4 -9 9 3 4 7 8 9 8 2 0 6 -4 9 -8z m66 -8 c0 -3 -11 -14 -24 -25 -13 -10 -29
-32 -36 -49 -12 -29 -30 -41 -30 -20 0 17 64 99 78 100 6 0 12 -3 12 -6z m336
-20 c-3 -8 -2 -12 4 -9 14 9 12 -9 -2 -23 -10 -10 -10 -15 1 -21 10 -7 4 -21
-30 -66 -39 -52 -63 -61 -43 -17 4 9 6 22 5 29 -3 19 47 123 60 123 6 0 8 -7
5 -16z m-736 -4 c0 -5 -4 -10 -10 -10 -5 0 -10 5 -10 10 0 6 5 10 10 10 6 0
10 -4 10 -10z m791 -33 c-8 -8 -11 -7 -11 4 0 20 13 34 18 19 3 -7 -1 -17 -7
-23z m1184 -28 c10 -30 0 -33 -13 -4 -6 14 -7 25 -2 25 5 0 12 -9 15 -21z
m-1885 -40 c11 -20 11 -20 -14 -4 -30 20 -32 25 -11 25 8 0 19 -9 25 -21z
m160 15 c0 -8 -19 -13 -24 -6 -3 5 1 9 9 9 8 0 15 -2 15 -3z m45 -14 c3 -6 -4
-9 -19 -8 -13 1 -22 6 -20 10 7 11 32 10 39 -2z m321 -19 c-9 -10 -16 -27 -16
-39 0 -11 -4 -23 -10 -27 -5 -3 -7 -12 -3 -20 3 -8 0 -15 -6 -15 -6 0 -11 -6
-11 -14 0 -16 -18 -31 -26 -23 -3 2 3 20 13 38 10 19 20 48 22 64 3 33 29 68
43 59 5 -3 2 -14 -6 -23z m-316 -37 c0 -17 -22 -14 -28 4 -2 7 3 12 12 12 9 0
16 -7 16 -16z m433 -9 c-7 -21 -13 -19 -13 6 0 11 4 18 10 14 5 -3 7 -12 3
-20z m-393 5 c0 -5 -5 -10 -11 -10 -5 0 -7 5 -4 10 3 6 8 10 11 10 2 0 4 -4 4
-10z m80 0 c0 -5 -9 -10 -21 -10 -11 0 -17 5 -14 10 3 6 13 10 21 10 8 0 14
-4 14 -10z m255 -60 c-10 -11 -22 -20 -27 -20 -5 0 -4 9 2 20 6 11 18 20 27
20 14 0 14 -2 -2 -20z m57 -20 c-2 -16 -10 -30 -18 -30 -10 0 -11 6 -3 30 6
17 14 30 18 30 4 0 6 -13 3 -30z m157 -31 c1 -4 -6 -10 -15 -13 -10 -4 -13 -2
-7 7 4 6 7 21 5 32 l-2 20 9 -20 c5 -11 10 -23 10 -26z m-652 -31 c20 1 31 -3
28 -8 -3 -6 -19 -10 -36 -10 -16 0 -29 -4 -29 -10 0 -11 -34 -9 -38 3 -4 12
22 36 32 29 5 -3 24 -5 43 -4z m633 -14 c0 -8 -5 -12 -10 -9 -6 4 -8 11 -5 16
9 14 15 11 15 -7z m-566 -31 c9 -23 -2 -29 -25 -15 -11 7 -25 10 -32 6 -7 -4
-3 2 8 13 22 22 40 20 49 -4z"/>
<path d="M3902 7029 c2 -7 10 -15 17 -17 8 -3 12 1 9 9 -2 7 -10 15 -17 17 -8
3 -12 -1 -9 -9z"/>
<path d="M4065 6871 c-3 -5 -2 -12 3 -15 5 -3 9 1 9 9 0 17 -3 19 -12 6z"/>
<path d="M3696 6765 c4 -8 11 -15 16 -15 6 0 5 6 -2 15 -7 8 -14 15 -16 15 -2
0 -1 -7 2 -15z"/>
<path d="M2211 2916 c-7 -8 -8 -17 -3 -20 6 -3 15 1 21 8 7 8 8 17 3 20 -6 3
-15 -1 -21 -8z"/>
<path d="M2330 2729 c0 -5 5 -7 10 -4 6 3 10 8 10 11 0 2 -4 4 -10 4 -5 0 -10
-5 -10 -11z"/>
<path d="M3910 2538 c0 -19 2 -20 10 -8 13 19 13 30 0 30 -5 0 -10 -10 -10
-22z"/>
<path d="M4220 2529 c0 -5 5 -7 10 -4 6 3 10 8 10 11 0 2 -4 4 -10 4 -5 0 -10
-5 -10 -11z"/>
<path d="M4138 2498 c-3 -7 -2 -22 2 -33 7 -19 7 -19 15 4 7 24 -8 53 -17 29z"/>
<path d="M3787 1553 c-11 -10 -8 -53 3 -53 5 0 7 7 4 15 -4 8 -1 15 5 15 6 0
11 7 11 15 0 16 -12 20 -23 8z"/>
<path d="M3725 1540 c3 -5 8 -10 11 -10 2 0 4 5 4 10 0 6 -5 10 -11 10 -5 0
-7 -4 -4 -10z"/>
<path d="M2371 1294 c0 -11 3 -14 6 -6 3 7 2 16 -1 19 -3 4 -6 -2 -5 -13z"/>
<path d="M2426 1274 c-4 -10 -1 -14 6 -12 15 5 23 28 10 28 -5 0 -13 -7 -16
-16z"/>
<path d="M3120 790 c-9 -6 -10 -10 -3 -10 6 0 15 5 18 10 8 12 4 12 -15 0z"/>
<path d="M5175 1079 c-4 -6 -5 -12 -2 -15 2 -3 7 2 10 11 7 17 1 20 -8 4z"/>
<path d="M3800 1112 c0 -4 4 -13 9 -20 7 -11 9 -11 14 1 3 9 -1 18 -9 21 -8 3
-14 2 -14 -2z"/>
<path d="M4267 8622 c2 -10 17 -26 32 -35 25 -15 27 -15 28 4 1 12 -5 19 -17
19 -10 0 -20 7 -24 15 -8 21 -25 19 -19 -3z"/>
<path d="M4445 8630 c-3 -5 -12 -7 -20 -4 -19 8 -115 -83 -108 -102 3 -9 -2
-14 -15 -14 -11 0 -26 -7 -33 -17 -13 -15 -11 -16 16 -9 17 4 32 12 33 17 2 5
11 9 21 9 9 0 27 7 39 16 13 8 39 18 58 20 19 2 45 11 58 19 12 8 25 13 28 10
2 -3 4 5 2 18 -1 12 -3 28 -3 35 -1 14 -67 17 -76 2z"/>
<path d="M4590 8505 c0 -8 5 -15 10 -15 6 0 10 7 10 15 0 8 -4 15 -10 15 -5 0
-10 -7 -10 -15z"/>
<path d="M5640 8285 c-16 -19 3 -45 31 -45 25 0 24 17 -2 25 -12 4 -18 12 -15
21 7 18 2 18 -14 -1z"/>
<path d="M5720 8220 c0 -5 5 -10 10 -10 6 0 10 5 10 10 0 6 -4 10 -10 10 -5 0
-10 -4 -10 -10z"/>
<path d="M5755 8190 c3 -5 8 -10 11 -10 2 0 4 5 4 10 0 6 -5 10 -11 10 -5 0
-7 -4 -4 -10z"/>
<path d="M5785 8140 c3 -5 8 -10 11 -10 2 0 4 5 4 10 0 6 -5 10 -11 10 -5 0
-7 -4 -4 -10z"/>
<path d="M5784 8075 c1 -8 8 -21 14 -27 9 -9 12 -8 12 4 0 8 -6 21 -14 27 -11
10 -14 9 -12 -4z"/>
<path d="M5630 8043 c0 -5 9 -14 20 -21 11 -7 20 -8 20 -2 0 5 -9 14 -20 20
-11 6 -20 7 -20 3z"/>
<path d="M1946 7656 c-10 -15 -12 -27 -6 -31 5 -3 15 5 21 19 7 14 19 27 28
29 11 3 9 5 -5 6 -13 1 -28 -9 -38 -23z"/>
<path d="M1820 7450 c0 -5 4 -10 9 -10 6 0 13 5 16 10 3 6 -1 10 -9 10 -9 0
-16 -4 -16 -10z"/>
<path d="M1821 7414 c0 -11 3 -14 6 -6 3 7 2 16 -1 19 -3 4 -6 -2 -5 -13z"/>
<path d="M1837 7203 c-4 -3 -7 -11 -7 -17 0 -6 5 -5 12 2 6 6 9 14 7 17 -3 3
-9 2 -12 -2z"/>
<path d="M2625 6747 c-28 -58 -28 -57 -18 -57 9 0 48 89 42 94 -2 2 -13 -15
-24 -37z"/>
<path d="M6451 6644 c6 -21 13 -41 16 -44 9 -9 -9 65 -18 74 -4 5 -3 -8 2 -30z"/>
<path d="M2367 6584 c-7 -8 4 -44 14 -44 12 0 12 37 0 44 -4 3 -11 3 -14 0z"/>
<path d="M2785 6576 c-3 -9 -7 -23 -10 -31 -2 -8 -2 -15 1 -15 7 0 25 52 20
58 -3 3 -8 -3 -11 -12z"/>
<path d="M1666 6513 c-4 -9 -3 -20 2 -25 6 -6 11 1 14 16 6 29 -6 35 -16 9z"/>
<path d="M2343 6503 c-3 -10 -8 -22 -10 -28 -3 -5 3 -1 11 9 16 20 21 36 11
36 -3 0 -8 -8 -12 -17z"/>
<path d="M2643 6488 c-2 -18 0 -20 7 -8 12 18 13 30 2 30 -4 0 -9 -10 -9 -22z"/>
<path d="M2230 6475 c0 -8 -6 -15 -13 -15 -8 0 -19 -12 -25 -26 -7 -15 -17
-22 -24 -18 -6 4 -8 3 -4 -4 3 -5 1 -12 -6 -14 -6 -2 -9 -12 -5 -21 4 -10 12
-14 22 -11 10 4 15 0 15 -12 1 -14 5 -11 17 11 11 21 12 30 4 33 -8 3 -3 19
14 48 14 24 21 44 15 44 -5 0 -10 -7 -10 -15z"/>
<path d="M2525 6480 c3 -5 8 -10 11 -10 2 0 4 5 4 10 0 6 -5 10 -11 10 -5 0
-7 -4 -4 -10z"/>
<path d="M2582 6465 c-13 -14 -18 -26 -13 -30 15 -8 51 13 51 30 0 24 -15 24
-38 0z"/>
<path d="M2585 6402 c-5 -4 -11 -35 -11 -70 -1 -37 -9 -78 -20 -100 -25 -51
-27 -71 -13 -115 12 -38 37 -47 47 -18 3 8 0 11 -6 7 -5 -3 -12 1 -16 9 -3 8
-1 17 4 20 6 4 10 17 10 30 0 13 5 37 11 52 6 15 15 37 19 48 5 11 8 28 8 38
-1 16 -2 16 -20 0 -18 -16 -18 -15 -3 20 24 59 19 101 -10 79z"/>
<path d="M3465 6390 c-3 -5 1 -10 10 -10 9 0 13 5 10 10 -3 6 -8 10 -10 10 -2
0 -7 -4 -10 -10z"/>
<path d="M1896 6374 c-9 -23 -2 -28 13 -10 7 8 8 17 3 20 -6 3 -13 -1 -16 -10z"/>
<path d="M2505 6364 c-17 -12 -18 -16 -5 -24 18 -11 26 -6 33 20 6 24 -1 25
-28 4z"/>
<path d="M1565 6360 c-3 -5 -3 -10 1 -10 4 0 0 -8 -8 -17 -21 -25 -98 -187
-98 -206 0 -9 -5 -19 -10 -22 -6 -4 -8 -11 -5 -16 4 -5 0 -26 -7 -46 -10 -29
-10 -37 0 -40 6 -3 12 -15 12 -28 0 -13 7 -30 15 -39 14 -13 13 -16 -7 -30
-12 -9 -18 -16 -12 -16 6 0 9 -10 7 -23 -3 -14 2 -29 11 -36 9 -8 16 -20 16
-27 0 -21 18 -17 31 8 11 20 12 20 24 4 12 -16 14 -16 20 3 3 12 1 36 -6 55
-10 27 -10 38 -1 49 7 8 10 22 6 31 -8 20 -11 20 -30 1 -28 -27 -38 -16 -12
13 22 23 26 36 26 82 -1 30 4 66 9 80 25 58 54 182 45 193 -5 7 -8 20 -7 30 3
18 -10 23 -20 7z"/>
<path d="M1691 6354 c0 -11 3 -14 6 -6 3 7 2 16 -1 19 -3 4 -6 -2 -5 -13z"/>
<path d="M2637 6247 c-4 -10 -2 -27 3 -38 6 -11 8 -24 5 -29 -3 -5 -1 -11 5
-15 11 -7 12 36 1 75 -6 22 -8 23 -14 7z"/>
<path d="M4030 6250 c0 -5 5 -10 10 -10 6 0 10 5 10 10 0 6 -4 10 -10 10 -5 0
-10 -4 -10 -10z"/>
<path d="M2425 6234 c-10 -10 -12 -19 -7 -23 6 -3 9 -21 7 -39 -1 -18 1 -35 6
-38 9 -5 13 9 10 34 -4 25 9 11 18 -20 7 -27 9 -28 10 -10 1 13 6 32 11 43 8
14 6 25 -6 44 -19 29 -27 31 -49 9z"/>
<path d="M1631 6230 c0 -8 4 -22 9 -30 12 -18 12 -2 0 25 -6 13 -9 15 -9 5z"/>
<path d="M4090 6207 c0 -7 9 -13 20 -14 11 -1 20 0 20 2 0 2 -9 9 -20 15 -15
8 -20 8 -20 -3z"/>
<path d="M2615 6150 c-3 -5 -1 -10 4 -10 6 0 11 5 11 10 0 6 -2 10 -4 10 -3 0
-8 -4 -11 -10z"/>
<path d="M4540 6140 c-9 -6 -10 -10 -3 -10 6 0 15 5 18 10 8 12 4 12 -15 0z"/>
<path d="M2509 6118 c0 -2 -2 -16 -4 -31 -3 -24 -1 -26 11 -16 16 13 18 35 4
44 -5 3 -10 5 -11 3z"/>
<path d="M3617 6114 c-3 -3 -34 -6 -69 -5 -36 0 -78 -4 -94 -9 -22 -6 -10 -8
53 -8 45 0 86 -3 92 -6 5 -4 12 -2 16 4 3 5 18 10 33 10 21 0 24 2 12 10 -17
11 -34 13 -43 4z"/>
<path d="M4688 6113 c7 -3 16 -2 19 1 4 3 -2 6 -13 5 -11 0 -14 -3 -6 -6z"/>
<path d="M2540 6059 c0 -5 5 -7 10 -4 6 3 10 8 10 11 0 2 -4 4 -10 4 -5 0 -10
-5 -10 -11z"/>
<path d="M2481 6018 c0 -13 -2 -39 -4 -58 -2 -20 2 -41 10 -48 11 -11 13 -8
13 18 0 17 4 29 9 25 5 -3 13 0 17 6 7 12 24 -6 24 -26 0 -5 -5 -3 -10 5 -8
12 -10 11 -10 -6 0 -26 25 -50 35 -34 3 5 7 24 7 40 1 17 5 30 10 30 11 0 10
41 -1 59 -5 8 -16 11 -30 6 -12 -3 -19 -10 -16 -15 3 -4 -3 -14 -12 -21 -14
-12 -16 -12 -11 2 6 16 -8 39 -23 39 -3 0 -7 -10 -8 -22z"/>
<path d="M1718 6010 c-7 -24 -3 -38 8 -28 3 4 4 17 2 30 l-3 23 -7 -25z"/>
<path d="M1674 5978 c-5 -13 -7 -26 -6 -30 1 -5 -5 -8 -13 -8 -9 0 -15 -9 -15
-25 0 -14 5 -25 10 -25 6 0 10 7 10 15 0 8 5 15 10 15 6 0 10 13 10 28 0 15 5
33 12 40 9 9 9 12 1 12 -7 0 -15 -10 -19 -22z"/>
<path d="M2357 5953 c-4 -3 -7 -11 -7 -17 0 -6 5 -5 12 2 6 6 9 14 7 17 -3 3
-9 2 -12 -2z"/>
<path d="M4162 5885 c-11 -13 -9 -15 8 -15 11 0 20 7 20 15 0 19 -11 19 -28 0z"/>
<path d="M1686 5863 c-6 -14 -5 -15 5 -6 7 7 10 15 7 18 -3 3 -9 -2 -12 -12z"/>
<path d="M1880 5866 c0 -23 16 -27 17 -5 1 10 -2 19 -8 19 -5 0 -9 -6 -9 -14z"/>
<path d="M4641 5864 c0 -11 3 -14 6 -6 3 7 2 16 -1 19 -3 4 -6 -2 -5 -13z"/>
<path d="M3916 5823 c-12 -12 -6 -62 10 -77 18 -18 34 -21 34 -5 0 5 5 7 12 3
8 -5 9 -2 5 10 -4 10 -7 23 -7 29 -1 15 -45 48 -54 40z"/>
<path d="M1419 5803 c-1 -10 -3 -36 -4 -58 -1 -22 -6 -64 -10 -92 -4 -33 -3
-53 3 -53 14 0 22 24 15 48 -2 11 0 23 6 26 15 9 14 106 0 106 -8 0 -8 4 0 14
8 10 9 16 1 21 -5 3 -11 -2 -11 -12z"/>
<path d="M1760 5790 c0 -5 7 -7 15 -4 8 4 15 8 15 10 0 2 -7 4 -15 4 -8 0 -15
-4 -15 -10z"/>
<path d="M1861 5781 c-8 -6 -9 -11 -3 -15 6 -3 14 -1 17 5 9 14 2 20 -14 10z"/>
<path d="M1580 5748 c0 -19 2 -20 10 -8 13 19 13 30 0 30 -5 0 -10 -10 -10
-22z"/>
<path d="M1510 5701 c0 -22 -3 -46 -6 -55 -4 -11 -1 -16 11 -16 12 0 15 5 11
17 -4 9 -2 19 4 23 12 7 2 70 -11 70 -5 0 -9 -18 -9 -39z"/>
<path d="M1832 5672 c-7 -35 -11 -66 -8 -69 11 -11 27 51 24 91 -3 40 -3 39
-16 -22z"/>
<path d="M4110 5713 c14 -3 29 -9 35 -14 5 -5 16 -9 25 -9 12 1 11 4 -4 15
-11 8 -34 14 -50 14 -28 -2 -28 -2 -6 -6z"/>
<path d="M4194 5685 c-9 -22 23 -47 67 -52 28 -4 39 -1 39 9 0 24 -16 38 -43
40 -15 1 -27 6 -27 10 0 14 -30 8 -36 -7z"/>
<path d="M4755 5680 c-3 -5 1 -10 9 -10 9 0 16 5 16 10 0 6 -4 10 -9 10 -6 0
-13 -4 -16 -10z"/>
<path d="M1653 5628 c-35 -25 -38 -43 -7 -43 18 0 48 39 42 57 -2 4 -18 -2
-35 -14z"/>
<path d="M4630 5640 c0 -5 5 -10 10 -10 6 0 10 5 10 10 0 6 -4 10 -10 10 -5 0
-10 -4 -10 -10z"/>
<path d="M5340 5591 c0 -5 6 -13 13 -19 10 -8 13 -6 14 9 1 10 -5 19 -13 19
-8 0 -14 -4 -14 -9z"/>
<path d="M1542 5567 c-7 -16 -17 -48 -23 -73 -6 -24 -15 -44 -20 -44 -5 0 -9
-9 -9 -20 0 -13 -7 -20 -18 -20 -12 0 -23 -13 -32 -37 -7 -21 -15 -33 -17 -26
-2 6 5 30 17 53 21 42 21 58 1 45 -15 -8 -36 -60 -45 -107 -6 -31 -4 -37 8
-32 11 4 13 0 9 -15 -8 -32 7 -25 18 9 15 42 29 37 29 -9 0 -22 4 -41 8 -43 5
-1 7 -22 4 -44 -4 -45 -6 -46 -114 -69 -56 -11 -29 -29 44 -29 14 1 15 -2 6
-13 -8 -10 -8 -17 0 -25 9 -9 12 -8 12 5 0 13 9 16 38 15 20 0 48 3 62 7 24 8
24 8 8 -12 -26 -29 -23 -46 7 -39 16 4 25 2 25 -5 0 -8 -12 -10 -34 -6 -23 4
-39 1 -46 -8 -6 -7 -24 -18 -40 -25 -16 -7 -28 -16 -25 -20 3 -4 -11 -18 -29
-31 -19 -13 -32 -27 -30 -31 7 -11 54 15 83 45 22 24 81 36 81 17 0 -15 -30
-32 -45 -26 -22 8 -18 -7 5 -22 18 -11 25 -10 49 8 38 27 45 25 25 -5 -15 -23
-15 -25 0 -25 9 0 16 -4 16 -8 0 -11 -95 -52 -120 -52 -11 0 -20 -4 -20 -9 0
-6 16 -7 35 -4 20 3 35 1 35 -4 0 -14 76 -9 95 7 13 11 14 10 7 -11 -5 -13
-19 -25 -31 -27 -16 -3 -21 -10 -21 -33 0 -37 29 -129 40 -129 5 0 12 -10 16
-22 3 -13 11 -29 17 -36 14 -17 36 44 42 115 4 51 3 52 -33 74 -22 13 -32 24
-24 26 7 3 19 -3 26 -12 20 -28 40 -13 40 31 1 34 4 39 26 42 49 7 54 24 35
126 -6 28 -5 37 4 32 7 -5 11 5 11 33 0 22 -5 43 -11 47 -15 9 -4 120 13 143
7 9 8 13 4 9 -5 -4 -16 -2 -24 5 -9 6 -13 8 -10 2 3 -5 0 -41 -6 -80 l-12 -70
-9 55 c-4 30 -7 63 -6 73 1 9 -3 17 -10 17 -7 0 -5 6 6 13 10 8 15 19 12 24
-4 6 0 24 8 39 8 16 15 40 15 54 l-1 25 -14 -25 -14 -25 -1 33 c0 17 -4 32
-10 32 -5 0 -10 -9 -10 -19 0 -11 -5 -23 -10 -26 -7 -4 -8 3 -4 21 5 20 4 25
-6 19 -9 -6 -10 -3 0 15 7 13 8 26 3 31 -8 8 -53 -101 -53 -130 0 -6 15 -2 35
9 46 26 51 25 31 -5 -9 -13 -16 -41 -16 -62 -1 -74 -1 -148 0 -188 2 -60 30
-157 53 -182 l20 -23 -23 0 c-13 0 -21 3 -17 6 8 8 -25 44 -40 44 -7 0 -10 6
-8 13 9 24 -11 112 -24 109 -9 -2 -11 6 -6 30 5 28 4 31 -7 18 -14 -17 -52
-15 -42 2 4 6 1 14 -7 19 -11 6 -9 12 6 29 14 15 20 17 26 8 7 -10 12 -9 25 3
15 16 15 17 -6 24 -15 5 -26 1 -36 -12 -14 -16 -15 -14 -11 32 4 40 3 45 -6
28 -19 -42 -23 -24 -21 80 3 124 12 197 25 214 6 6 9 24 7 40 l-4 28 -12 -28z"/>
<path d="M1594 5568 c-2 -3 0 -17 5 -29 l8 -24 7 23 c4 12 14 22 22 22 8 0 14
3 14 8 0 9 -50 10 -56 0z"/>
<path d="M1805 5549 c-6 -19 0 -38 9 -28 10 12 16 49 7 49 -5 0 -13 -9 -16
-21z"/>
<path d="M1440 5530 c0 -5 5 -10 10 -10 6 0 10 5 10 10 0 6 -4 10 -10 10 -5 0
-10 -4 -10 -10z"/>
<path d="M1696 5465 c-3 -8 -1 -15 4 -15 6 0 10 7 10 15 0 8 -2 15 -4 15 -2 0
-6 -7 -10 -15z"/>
<path d="M1782 5425 c4 -4 3 -16 -3 -26 -5 -11 -6 -19 -1 -19 15 0 22 39 9 47
-7 3 -9 3 -5 -2z"/>
<path d="M1827 5390 c-9 -11 -12 -22 -7 -25 5 -3 14 4 20 16 15 28 8 33 -13 9z"/>
<path d="M3596 5395 c-3 -8 -13 -14 -23 -13 -38 3 -52 -2 -47 -17 4 -8 1 -15
-5 -15 -6 0 -11 4 -11 9 0 6 -12 6 -30 0 -16 -6 -30 -14 -30 -17 0 -4 -16 -18
-35 -31 -26 -17 -39 -21 -47 -13 -6 6 -16 9 -22 8 -6 -2 -8 -1 -3 1 11 7 8 33
-4 33 -5 0 -7 -5 -3 -12 4 -7 3 -8 -5 -4 -6 4 -18 3 -25 -3 -7 -6 -21 -9 -30
-5 -9 3 -27 -1 -41 -10 -21 -14 -25 -14 -39 0 -20 19 -43 20 -81 4 -16 -7 -43
-14 -60 -16 -16 -1 -24 0 -17 3 10 4 9 8 -5 18 -23 18 -62 8 -90 -22 -25 -26
-45 -31 -37 -8 7 17 -11 21 -21 5 -4 -6 -10 -8 -15 -5 -5 3 -11 1 -15 -5 -3
-5 -12 -10 -18 -10 -7 0 -1 9 13 20 14 10 21 22 16 27 -5 4 -11 2 -13 -4 -3
-7 -11 -13 -18 -13 -23 0 -27 -19 -9 -37 17 -18 54 -25 54 -11 0 4 20 8 45 8
25 0 45 -5 45 -11 0 -5 -4 -8 -9 -4 -5 3 -16 -1 -24 -9 -7 -8 -20 -14 -28 -14
-40 2 -69 -3 -69 -13 0 -6 9 -9 19 -6 14 3 18 1 14 -9 -5 -13 18 -19 55 -15
19 3 14 -16 -13 -43 -32 -32 -32 -48 -1 -40 13 3 34 0 46 -6 15 -8 20 -8 16
-1 -4 6 -3 11 3 11 6 0 26 14 45 31 20 17 40 28 45 25 5 -4 17 1 25 10 9 9 23
14 30 11 8 -3 17 1 20 8 3 9 12 12 22 8 9 -3 20 0 24 8 5 7 12 10 16 6 9 -8
-27 -37 -38 -31 -4 3 -14 -9 -23 -26 -19 -37 -24 -38 -17 -5 6 33 -2 32 -59
-11 -28 -22 -45 -42 -42 -50 6 -17 5 -17 38 -4 22 8 25 13 15 25 -10 12 -8 12
14 2 14 -7 26 -20 26 -30 0 -17 2 -17 29 2 25 18 30 19 41 6 7 -8 24 -15 39
-15 25 1 25 1 7 15 -14 11 -16 15 -5 15 21 0 42 -16 35 -28 -3 -5 1 -15 9 -22
8 -7 15 -10 15 -6 0 3 11 1 25 -4 16 -6 25 -6 25 0 0 15 26 12 40 -5 14 -17
116 -21 140 -5 11 8 7 9 -15 5 l-30 -6 34 19 c34 19 35 19 87 -4 40 -18 52
-20 47 -9 -7 19 29 20 58 3 17 -11 22 -10 35 7 12 16 16 17 23 6 5 -7 14 -10
20 -7 6 4 13 1 16 -6 3 -7 19 -14 36 -15 17 -1 38 -8 47 -15 13 -11 15 -10 9
5 -8 22 18 23 59 3 43 -22 89 -31 80 -17 -4 6 -1 11 8 11 8 0 17 -6 19 -12 4
-10 7 -10 14 -1 13 18 34 0 31 -27 -2 -12 2 -25 8 -27 8 -3 11 13 10 49 -1 38
3 52 12 50 8 -1 11 8 8 34 -4 29 -2 33 9 24 23 -19 29 8 9 38 -10 15 -19 32
-19 37 0 6 -10 11 -22 13 -13 2 -23 10 -23 18 0 9 -20 35 -45 58 -25 24 -45
48 -45 53 0 9 -24 32 -50 48 -10 6 -12 4 -8 -7 4 -8 2 -21 -3 -29 -5 -9 -9
-10 -9 -2 0 6 -17 17 -37 24 -21 6 -47 17 -58 23 -33 18 -85 34 -79 25 3 -5 1
-9 -5 -9 -5 0 -12 4 -15 9 -4 5 -35 9 -70 10 -47 0 -66 -4 -70 -14z m-398
-142 c-4 -24 -23 -27 -25 -3 -1 12 4 20 13 20 9 0 14 -7 12 -17z m-288 -43 c0
-5 -2 -10 -4 -10 -3 0 -8 5 -11 10 -3 6 -1 10 4 10 6 0 11 -4 11 -10z m414
-45 c-4 -16 -2 -25 6 -25 7 0 6 -5 -4 -15 -19 -20 -43 -21 -27 -1 9 11 6 12
-16 9 -27 -4 -27 -4 -9 11 11 9 24 16 29 16 5 0 7 7 3 15 -3 9 0 15 10 15 10
0 13 -7 8 -25z m33 6 c0 -11 -5 -17 -9 -15 -11 7 -10 34 1 34 6 0 9 -9 8 -19z
m-382 -11 c-3 -5 -11 -10 -16 -10 -6 0 -7 5 -4 10 3 6 11 10 16 10 6 0 7 -4 4
-10z"/>
<path d="M2988 5368 c9 -9 15 -9 24 0 9 9 7 12 -12 12 -19 0 -21 -3 -12 -12z"/>
<path d="M1742 5350 c0 -14 2 -19 5 -12 2 6 2 18 0 25 -3 6 -5 1 -5 -13z"/>
<path d="M2908 5333 c7 -3 16 -2 19 1 4 3 -2 6 -13 5 -11 0 -14 -3 -6 -6z"/>
<path d="M1823 5302 c-7 -4 -11 -23 -11 -42 2 -36 -17 -121 -33 -153 -14 -26
-19 -108 -10 -147 8 -31 9 -29 9 25 1 42 12 90 36 160 45 125 48 182 9 157z"/>
<path d="M1778 5220 c-9 -17 -14 -30 -10 -30 4 0 15 14 24 30 9 17 14 30 10
30 -4 0 -15 -14 -24 -30z"/>
<path d="M4100 5237 c0 -18 28 -42 37 -33 4 3 -3 15 -15 26 -16 15 -22 17 -22
7z"/>
<path d="M2747 5213 c-4 -3 -7 -21 -7 -40 0 -25 4 -33 18 -33 29 0 34 11 17
37 -9 13 -13 28 -10 33 7 11 -8 14 -18 3z"/>
<path d="M2785 5191 c-8 -13 29 -32 41 -21 5 5 14 2 21 -5 8 -9 9 -16 3 -20
-15 -9 -12 -25 4 -25 38 0 22 49 -21 69 -29 13 -40 14 -48 2z"/>
<path d="M2820 5111 c0 -12 6 -21 15 -21 8 0 15 4 15 9 0 5 -7 14 -15 21 -13
10 -15 9 -15 -9z"/>
<path d="M1420 5033 c-30 -13 -32 -17 -16 -23 23 -8 66 10 66 28 0 15 -6 14
-50 -5z"/>
<path d="M3560 5029 c0 -5 5 -7 10 -4 6 3 10 8 10 11 0 2 -4 4 -10 4 -5 0 -10
-5 -10 -11z"/>
<path d="M4599 5037 c-1 -4 -2 -12 -3 -17 -2 -15 -27 -30 -52 -30 -18 0 -21
-6 -21 -40 0 -22 2 -38 5 -35 3 3 12 -1 21 -9 20 -17 89 -28 96 -15 4 5 16 9
28 9 20 1 21 2 5 14 -10 7 -18 21 -18 30 0 25 -58 113 -61 93z"/>
<path d="M4144 5009 c-3 -6 -1 -16 5 -22 8 -8 11 -5 11 11 0 24 -5 28 -16 11z"/>
<path d="M4235 5010 c3 -5 8 -10 11 -10 2 0 4 5 4 10 0 6 -5 10 -11 10 -5 0
-7 -4 -4 -10z"/>
<path d="M3440 4980 c8 -14 21 -20 48 -21 30 0 33 -2 17 -9 -16 -7 -13 -9 16
-9 20 -1 42 -7 49 -15 6 -8 28 -16 48 -18 23 -2 36 -8 35 -15 -2 -7 4 -13 13
-13 12 0 15 -6 10 -24 -5 -20 -2 -23 22 -21 41 3 44 4 37 15 -3 6 -16 10 -28
11 -15 1 -12 4 13 11 20 6 36 6 37 1 2 -5 18 -8 36 -6 28 4 30 3 13 -8 -15 -9
-16 -13 -5 -20 12 -7 11 -9 -1 -9 -13 0 -13 -2 -1 -9 8 -5 16 -16 17 -25 2
-12 -4 -15 -24 -10 -40 10 -56 25 -40 37 9 6 7 7 -7 2 -24 -8 -23 -8 -56 -6
-14 0 -35 10 -46 21 -12 11 -23 15 -25 9 -5 -14 -58 -1 -55 13 1 6 -4 13 -10
15 -7 3 -13 -2 -13 -11 0 -21 -29 -20 -46 2 -10 12 -16 14 -22 5 -4 -7 -16
-12 -27 -11 -53 2 -233 -16 -303 -31 -52 -10 -64 -20 -34 -28 26 -6 28 -16 7
-33 -10 -9 -23 -9 -47 -1 -18 5 -85 13 -148 16 -63 3 -150 9 -192 13 -61 6
-78 5 -78 -5 0 -7 -3 -12 -7 -12 -17 3 -57 -3 -48 -6 8 -4 442 -45 467 -45 4
0 8 -4 8 -10 0 -5 -7 -10 -15 -10 -8 0 -15 -4 -15 -10 0 -5 -8 -10 -18 -10
-10 0 -25 -9 -35 -20 -15 -18 -15 -20 1 -28 9 -5 23 -7 31 -4 8 2 11 0 7 -6
-3 -5 0 -12 8 -15 14 -5 46 46 46 72 0 6 3 10 8 9 7 -3 70 15 135 37 36 13 38
13 32 -5 -17 -54 -15 -60 18 -54 l32 5 -38 -33 c-41 -36 -45 -59 -23 -113 14
-32 13 -35 -2 -35 -27 0 8 -30 43 -36 39 -7 44 -13 17 -21 -12 -3 -20 -9 -17
-13 3 -4 -2 -10 -10 -14 -8 -3 -15 -13 -14 -23 0 -10 3 -13 5 -6 4 9 13 8 37
-2 34 -13 125 -30 142 -26 6 2 7 -1 3 -4 -14 -14 11 -43 32 -38 14 4 20 0 20
-11 0 -9 -5 -16 -11 -16 -5 0 -8 -4 -5 -9 4 -5 27 -8 53 -6 l47 3 -25 -19
c-13 -10 -29 -17 -35 -15 -6 3 -16 -6 -23 -20 -7 -15 -19 -24 -34 -24 -12 0
-33 -7 -45 -16 -13 -9 -30 -13 -39 -10 -8 4 -44 1 -79 -5 -48 -8 -76 -8 -112
1 -27 6 -63 12 -81 12 -17 1 -34 4 -36 9 -3 4 -19 5 -35 3 -17 -3 -30 -1 -30
4 0 12 -61 35 -69 27 -3 -3 5 -8 17 -12 12 -3 20 -8 18 -12 -2 -3 2 -14 9 -24
10 -14 18 -16 39 -7 43 16 54 12 61 -20 5 -25 12 -30 35 -30 34 0 173 -30 180
-39 3 -4 33 -7 68 -7 35 1 66 -4 70 -10 11 -17 182 -1 196 18 9 11 84 33 143
40 6 1 9 7 6 15 -3 7 -1 13 5 13 6 0 13 -6 15 -12 3 -7 10 2 17 20 7 17 18 32
25 32 7 0 15 7 19 15 3 8 12 15 21 15 8 0 15 9 15 20 0 15 7 20 25 20 14 0 25
4 25 9 0 5 15 12 33 16 53 13 77 14 77 4 0 -23 22 -6 36 29 30 68 47 102 52
98 8 -9 62 48 62 66 0 10 4 18 8 18 14 0 6 74 -8 78 -8 3 -10 0 -5 -8 6 -10 1
-11 -21 -6 -39 10 -39 10 -27 63 14 60 1 96 -43 122 -19 11 -34 24 -33 28 3
20 -2 27 -11 13 -8 -13 -10 -12 -10 3 0 9 -6 17 -14 17 -8 0 -21 6 -28 13 -16
16 -84 41 -113 42 -14 0 -19 -6 -17 -18 3 -18 2 -18 -28 0 -22 13 -27 19 -16
21 26 6 7 22 -24 22 -23 0 -28 4 -23 16 5 14 1 16 -22 12 -21 -4 -29 -1 -32
13 -3 11 -11 19 -18 19 -7 0 -18 7 -25 15 -9 11 -22 14 -42 10 -17 -4 -35 -2
-44 6 -8 6 -17 9 -21 6 -3 -4 -12 -2 -20 4 -10 9 -13 8 -13 0 0 -7 -5 -9 -11
-5 -6 3 -36 8 -66 11 -52 4 -54 3 -43 -17z m155 -30 c3 -5 1 -10 -4 -10 -6 0
-11 5 -11 10 0 6 2 10 4 10 3 0 8 -4 11 -10z m40 -252 c-10 19 3 15 40 -14 19
-14 37 -38 40 -54 4 -16 11 -28 17 -27 5 1 11 -10 13 -24 5 -39 -29 -66 -94
-75 l-54 -7 9 34 c5 19 9 68 9 110 0 65 2 74 13 60 8 -9 11 -10 7 -3z m-326
-84 c-6 -7 -15 -11 -21 -8 -5 3 -4 12 3 20 6 7 15 11 21 8 5 -3 4 -12 -3 -20z
m29 -41 c-10 -2 -18 -13 -18 -24 0 -10 -4 -19 -10 -19 -5 0 -7 -7 -4 -15 8
-20 -6 -19 -22 3 -16 21 -17 32 -3 32 6 0 17 7 25 15 9 8 23 14 32 14 15 -1
15 -2 0 -6z m730 -261 c2 -7 -2 -10 -12 -6 -9 3 -16 11 -16 16 0 13 23 5 28
-10z"/>
<path d="M1423 4906 c-20 -9 -33 -46 -17 -46 15 0 44 22 39 30 -3 6 1 7 11 3
11 -4 15 -2 12 7 -6 18 -18 20 -45 6z"/>
<path d="M1295 4870 c-3 -5 -1 -10 4 -10 6 0 11 5 11 10 0 6 -2 10 -4 10 -3 0
-8 -4 -11 -10z"/>
<path d="M1871 4834 c0 -11 3 -14 6 -6 3 7 2 16 -1 19 -3 4 -6 -2 -5 -13z"/>
<path d="M5801 4826 c2 -2 27 -6 54 -10 36 -5 46 -4 35 3 -13 10 -99 16 -89 7z"/>
<path d="M6062 4812 c-6 -2 -8 -10 -5 -18 3 -8 0 -14 -6 -14 -6 0 -11 5 -11
12 0 6 -3 8 -6 5 -4 -4 1 -18 10 -31 18 -29 21 -72 5 -82 -8 -5 -8 -8 0 -13
13 -9 17 -103 7 -153 -8 -37 -8 -38 23 -38 18 0 31 5 31 13 0 8 3 8 9 -2 8
-12 16 -8 41 19 28 30 39 35 84 36 115 4 253 16 289 25 34 9 37 12 31 37 -10
39 -8 38 -79 75 l-65 35 -1 -37 c-2 -26 -3 -29 -6 -11 -3 20 -15 30 -56 46
-37 15 -53 28 -57 45 -4 14 -16 26 -35 31 -35 10 -188 25 -203 20z m301 -162
c9 -11 35 -24 57 -30 56 -15 42 -27 -32 -29 -35 -1 -87 -3 -117 -6 l-54 -4 20
22 c11 12 27 35 37 50 15 24 22 28 44 22 15 -4 35 -15 45 -25z m-153 -36 c0
-8 -4 -12 -10 -9 -5 3 -10 1 -10 -4 0 -6 -4 -11 -10 -11 -5 0 -10 9 -10 20 0
13 7 20 20 20 11 0 20 -7 20 -16z"/>
<path d="M2093 4781 c-12 -10 -25 -30 -29 -45 -3 -14 -10 -26 -15 -26 -5 0 -9
-5 -9 -12 0 -19 41 24 60 64 10 21 17 38 17 38 -1 -1 -12 -9 -24 -19z"/>
<path d="M2506 4785 c4 -8 17 -15 30 -15 31 0 22 25 -11 28 -18 1 -23 -2 -19
-13z"/>
<path d="M2866 4693 c-19 -26 -19 -26 5 -44 24 -18 24 -18 32 13 8 31 4 58
-10 58 -4 0 -17 -12 -27 -27z"/>
<path d="M4180 4650 c0 -5 5 -10 10 -10 6 0 10 5 10 10 0 6 -4 10 -10 10 -5 0
-10 -4 -10 -10z"/>
<path d="M4403 4550 c-21 -27 -47 -52 -58 -54 -11 -3 -32 -7 -47 -11 -15 -3
-35 -17 -45 -31 -17 -26 -17 -27 20 -60 43 -40 66 -42 96 -10 18 19 21 30 15
60 -5 29 -2 42 13 59 30 34 66 97 55 97 -6 0 -28 -22 -49 -50z m-113 -136 c0
-17 -22 -14 -28 4 -2 7 3 12 12 12 9 0 16 -7 16 -16z"/>
<path d="M1482 4540 c-24 -22 -23 -22 -26 -62 0 -14 -4 -30 -8 -34 -5 -4 -8
-12 -8 -18 0 -6 14 5 30 24 16 19 30 30 30 23 0 -6 -5 -15 -11 -18 -6 -4 -8
-13 -5 -21 3 -8 0 -24 -6 -34 -10 -15 -10 -22 0 -32 18 -18 15 -30 -6 -23 -13
3 -28 -4 -46 -22 -24 -23 -26 -29 -13 -37 13 -8 12 -12 -7 -27 l-21 -18 26 -1
c20 0 28 6 33 24 4 17 13 24 30 24 14 0 25 -3 24 -7 -2 -18 4 -19 20 -6 9 8
25 21 36 28 18 13 18 16 -3 122 -24 125 -36 146 -69 115z"/>
<path d="M2791 4524 c0 -11 3 -14 6 -6 3 7 2 16 -1 19 -3 4 -6 -2 -5 -13z"/>
<path d="M2830 4525 c0 -15 18 -40 24 -34 3 3 -1 14 -9 25 -8 10 -14 15 -15 9z"/>
<path d="M2658 4513 c-10 -2 -18 -9 -18 -14 0 -12 2 -12 41 6 33 14 18 19 -23
8z"/>
<path d="M3186 4512 c-3 -4 4 -9 15 -9 23 -2 25 3 4 10 -8 4 -16 3 -19 -1z"/>
<path d="M1759 4403 c-1 -5 -1 -12 0 -17 1 -5 -4 -4 -11 2 -11 9 -14 2 -16
-39 -1 -27 2 -49 8 -49 5 0 12 -16 16 -35 3 -19 10 -35 14 -35 4 0 29 -20 54
-44 43 -40 89 -61 108 -49 5 2 8 18 8 35 0 22 -10 40 -35 64 -19 18 -35 42
-35 53 0 16 -6 19 -32 17 -18 -2 -25 -1 -14 1 10 3 21 13 23 24 3 10 10 16 15
13 22 -14 -13 34 -36 50 -26 17 -65 22 -67 9z"/>
<path d="M4136 4385 c-9 -26 -7 -32 5 -12 6 10 9 21 6 23 -2 3 -7 -2 -11 -11z"/>
<path d="M5897 4306 c-4 -10 -1 -13 8 -9 8 3 12 9 9 14 -7 12 -11 11 -17 -5z"/>
<path d="M2810 4219 c0 -5 -5 -7 -12 -3 -7 4 -8 3 -4 -5 6 -9 11 -9 22 0 17
14 18 19 4 19 -5 0 -10 -5 -10 -11z"/>
<path d="M1345 4210 c-3 -5 3 -10 14 -10 12 0 21 5 21 10 0 6 -6 10 -14 10 -8
0 -18 -4 -21 -10z"/>
<path d="M4728 4116 c-15 -14 -30 -36 -34 -50 -5 -21 -2 -26 21 -32 21 -5 32
-1 49 17 23 25 29 69 12 81 -16 11 -18 10 -48 -16z"/>
<path d="M3412 4037 c-6 -7 -12 -23 -14 -37 -2 -20 2 -26 20 -28 14 -2 22 -10
22 -23 0 -10 2 -19 4 -19 11 0 61 53 59 61 -2 5 2 9 8 9 8 0 8 5 -1 15 -19 23
-43 20 -31 -4 9 -16 7 -20 -14 -23 -22 -5 -24 -2 -20 22 5 30 -16 48 -33 27z"/>
<path d="M5198 4013 c7 -3 16 -2 19 1 4 3 -2 6 -13 5 -11 0 -14 -3 -6 -6z"/>
<path d="M4800 4000 c0 -5 5 -10 10 -10 6 0 10 5 10 10 0 6 -4 10 -10 10 -5 0
-10 -4 -10 -10z"/>
<path d="M5418 3963 c-5 -26 3 -63 14 -63 5 0 7 4 3 9 -3 5 5 12 17 14 l23 4
-22 8 c-13 4 -23 14 -23 22 0 8 5 11 10 8 6 -3 10 -1 10 4 0 18 -28 12 -32 -6z"/>
<path d="M5460 3974 c0 -3 9 -19 21 -35 11 -16 17 -33 14 -39 -3 -5 0 -7 9 -4
8 3 12 13 10 22 -5 15 -4 15 6 0 12 -19 40 -25 40 -8 0 5 12 16 28 24 l27 14
-25 10 c-30 11 -130 23 -130 16z"/>
<path d="M5386 3955 c-3 -8 -1 -15 4 -15 6 0 10 7 10 15 0 8 -2 15 -4 15 -2 0
-6 -7 -10 -15z"/>
<path d="M5723 3933 c-1 -16 1 -22 4 -15 2 6 12 12 21 12 14 0 14 2 3 9 -11 7
-11 9 0 14 9 3 6 6 -6 6 -16 1 -21 -6 -22 -26z"/>
<path d="M5671 3934 c0 -11 3 -14 6 -6 3 7 2 16 -1 19 -3 4 -6 -2 -5 -13z"/>
<path d="M1622 3841 c-9 -5 -2 -10 24 -14 41 -7 50 -4 39 12 -7 13 -45 14 -63
2z"/>
<path d="M3520 3745 c-10 -12 -9 -16 5 -21 23 -9 40 10 22 25 -11 9 -17 8 -27
-4z"/>
<path d="M5075 3720 c3 -5 8 -10 11 -10 2 0 4 5 4 10 0 6 -5 10 -11 10 -5 0
-7 -4 -4 -10z"/>
<path d="M1840 3596 c-6 -8 -18 -12 -27 -9 -13 5 -13 3 -4 -14 13 -25 -2 -40
-36 -37 -13 0 -23 -3 -23 -7 0 -5 -7 -9 -15 -9 -8 0 -15 -5 -15 -11 0 -7 -11
-9 -30 -5 -18 3 -30 1 -30 -5 0 -6 5 -7 10 -4 6 3 10 -1 10 -9 0 -19 55 -22
109 -6 20 5 40 6 50 0 18 -9 101 22 101 38 0 15 -64 92 -76 92 -6 0 -17 -6
-24 -14z"/>
<path d="M2125 3564 c-17 -9 -33 -21 -37 -29 -5 -7 -17 -11 -28 -8 -11 3 -20
0 -20 -6 0 -6 4 -11 9 -11 5 0 11 -10 14 -22 7 -24 22 -17 22 10 0 11 7 16 18
14 11 -2 17 4 17 18 0 11 6 20 14 20 15 0 31 18 24 25 -2 2 -17 -3 -33 -11z"/>
<path d="M4897 3471 c-5 -40 7 -91 22 -91 3 0 11 8 18 19 9 15 8 23 -4 40 -8
13 -18 34 -22 49 -7 25 -8 23 -14 -17z"/>
<path d="M1985 3439 c-4 -6 -5 -12 -2 -15 2 -3 7 2 10 11 7 17 1 20 -8 4z"/>
<path d="M2050 3425 c0 -8 7 -15 15 -15 8 0 15 -5 15 -11 0 -5 5 -7 11 -3 8 4
7 9 -2 15 -8 5 -9 9 -4 9 11 0 -16 20 -27 20 -5 0 -8 -7 -8 -15z"/>
<path d="M2080 3350 c0 -22 24 -27 36 -8 4 7 3 8 -4 4 -7 -4 -12 -1 -12 8 0 9
-4 16 -10 16 -5 0 -10 -9 -10 -20z"/>
<path d="M2213 3353 c3 -5 -5 -21 -19 -36 -23 -25 -24 -29 -11 -48 11 -14 17
-17 22 -9 4 7 1 16 -6 21 -11 7 -10 11 6 23 11 9 16 16 11 16 -5 0 -3 6 3 14
9 11 9 16 0 22 -7 4 -9 3 -6 -3z"/>
<path d="M2153 3335 c-8 -22 6 -33 17 -15 13 20 12 30 0 30 -6 0 -13 -7 -17
-15z"/>
<path d="M4982 3296 c2 -15 8 -26 13 -26 15 0 12 43 -3 48 -10 3 -13 -4 -10
-22z"/>
<path d="M5140 3304 c0 -8 5 -12 10 -9 6 4 8 11 5 16 -9 14 -15 11 -15 -7z"/>
<path d="M4811 3270 c-14 -8 -7 -30 10 -30 6 0 8 4 5 9 -4 5 -1 11 6 13 7 3 8
7 2 11 -5 3 -16 2 -23 -3z"/>
<path d="M2213 3233 c-7 -2 -13 -12 -13 -20 0 -11 -7 -14 -23 -9 -20 5 -26 -1
-41 -31 -12 -25 -14 -39 -7 -46 8 -8 11 -4 11 11 0 12 11 29 25 38 32 21 44
11 19 -17 -10 -11 -18 -31 -16 -44 2 -12 -4 -29 -12 -38 -22 -22 -22 -71 0
-63 9 3 27 9 40 12 26 7 31 19 13 30 -6 3 -15 0 -20 -7 -5 -9 -9 -10 -9 -2 0
6 12 21 28 32 26 19 26 20 5 21 -18 0 -21 5 -19 28 2 16 10 28 20 30 16 3 16
5 2 21 -14 16 -14 19 4 39 20 21 18 26 -7 15z"/>
<path d="M2345 3167 c-4 -10 -5 -21 -1 -24 10 -10 18 4 13 24 -4 17 -4 17 -12
0z"/>
<path d="M2220 3060 c0 -5 4 -10 9 -10 6 0 13 5 16 10 3 6 -1 10 -9 10 -9 0
-16 -4 -16 -10z"/>
<path d="M2320 3060 c0 -5 5 -10 11 -10 5 0 7 5 4 10 -3 6 -8 10 -11 10 -2 0
-4 -4 -4 -10z"/>
<path d="M2153 2975 c-19 -21 -16 -27 9 -23 13 2 24 11 26 21 4 20 -18 22 -35
2z"/>
<path d="M2770 2919 c7 -11 14 -18 17 -15 8 8 -5 36 -17 36 -7 0 -7 -6 0 -21z"/>
<path d="M2755 2680 c3 -5 8 -10 11 -10 2 0 4 5 4 10 0 6 -5 10 -11 10 -5 0
-7 -4 -4 -10z"/>
</g>
</svg>
